<svg width="49" height="48" viewBox="0 0 49 48" fill="none" xmlns="http://www.w3.org/2000/svg">
<rect x="0.762787" y="0.921814" width="47.6395" height="46.7327" rx="11.9008" fill="#FFBF00"/>
<path opacity="0.15" d="M25.1841 37.4783C27.271 37.4783 29.2633 37.5942 30.7202 37.7966C31.3707 37.887 31.8736 37.9917 32.2251 38.0964C31.8736 38.2011 31.3708 38.3068 30.7202 38.3972C29.2633 38.5997 27.271 38.7146 25.1841 38.7146C23.0973 38.7146 21.1058 38.5996 19.6489 38.3972C18.9977 38.3067 18.4946 38.2012 18.1431 38.0964C18.4946 37.9917 18.9979 37.8871 19.6489 37.7966C21.1058 37.5942 23.0973 37.4783 25.1841 37.4783Z" fill="#9A4CC2" stroke="white" stroke-width="0.96555"/>
<path d="M38.5005 15.237C38.5517 15.0243 38.6632 14.8302 38.822 14.677C38.9808 14.5238 39.1806 14.4177 39.3982 14.371L41.1712 13.9674C41.2011 13.9578 41.2272 13.9391 41.2456 13.9141C41.2641 13.889 41.2741 13.8589 41.2741 13.828C41.2741 13.7971 41.2641 13.767 41.2456 13.7419C41.2272 13.7169 41.2011 13.6982 41.1712 13.6886L39.3982 13.2849C39.1796 13.2377 38.9792 13.1305 38.8203 12.9759C38.6614 12.8213 38.5505 12.6256 38.5005 12.4116L38.0965 10.6724C38.0867 10.643 38.0676 10.6175 38.0421 10.5994C38.0166 10.5812 37.9859 10.5715 37.9544 10.5715C37.9228 10.5715 37.8921 10.5812 37.8666 10.5994C37.8411 10.6175 37.8221 10.643 37.8122 10.6724L37.4008 12.4116C37.3519 12.6222 37.2429 12.8148 37.0866 12.9668C36.9303 13.1188 36.7331 13.2241 36.518 13.2703L34.7525 13.6739C34.7226 13.6835 34.6965 13.7022 34.678 13.7272C34.6596 13.7523 34.6496 13.7824 34.6496 13.8133C34.6496 13.8442 34.6596 13.8743 34.678 13.8994C34.6965 13.9244 34.7226 13.9431 34.7525 13.9527L36.518 14.3564C36.734 14.4031 36.9319 14.5094 37.0883 14.6629C37.2447 14.8163 37.3532 15.0104 37.4008 15.2223L37.8122 16.9542C37.8221 16.9836 37.8411 17.0091 37.8666 17.0273C37.8921 17.0454 37.9228 17.0551 37.9544 17.0551C37.9859 17.0551 38.0166 17.0454 38.0421 17.0273C38.0676 17.0091 38.0867 16.9836 38.0965 16.9542L38.5005 15.237ZM12.0703 37.2086L13.6264 36.6949C13.6553 36.6867 13.6806 36.6692 13.6982 36.6453C13.7159 36.6213 13.7248 36.5923 13.7236 36.5628C13.724 36.5325 13.7149 36.5029 13.6975 36.4779C13.6801 36.453 13.6553 36.4339 13.6264 36.4233L12.3471 36.005C12.2611 35.9784 12.1828 35.9319 12.119 35.8693C12.0552 35.8067 12.0077 35.7299 11.9806 35.6455L11.5542 34.4273C11.5434 34.3989 11.5239 34.3746 11.4985 34.3575C11.473 34.3404 11.4428 34.3315 11.412 34.3319C11.3819 34.3307 11.3523 34.3395 11.3279 34.3568C11.3035 34.3741 11.2857 34.3989 11.2774 34.4273L10.851 35.6821C10.821 35.7662 10.7716 35.8424 10.7068 35.9048C10.6419 35.9672 10.5632 36.014 10.4769 36.0417L9.19767 36.46C9.16879 36.4706 9.14395 36.4897 9.12654 36.5146C9.10913 36.5396 9.10001 36.5692 9.10041 36.5995C9.09924 36.629 9.10818 36.658 9.1258 36.682C9.14343 36.7059 9.16874 36.7234 9.19767 36.7316L10.4769 37.1499C10.5643 37.1778 10.6437 37.2256 10.7087 37.2893C10.7738 37.3531 10.8225 37.431 10.851 37.5168L11.2774 38.7717C11.2857 38.8 11.3035 38.8249 11.3279 38.8422C11.3523 38.8595 11.3819 38.8682 11.412 38.8671C11.4428 38.8675 11.473 38.8585 11.4985 38.8414C11.5239 38.8244 11.5434 38.8 11.5542 38.7717L12.0703 37.2086Z" fill="white" stroke="white" stroke-width="0.96555" stroke-linecap="round" stroke-linejoin="round"/>
<path d="M32.9276 21.4585H32.9423C35.4909 21.4535 38.0297 21.7747 40.493 22.4155C40.5513 22.4323 40.6004 22.4678 40.6337 22.5132C40.6665 22.5579 40.6812 22.6108 40.6796 22.6636L40.4208 25.4663C40.416 25.518 40.3936 25.5682 40.3563 25.6089C40.3189 25.6496 40.2678 25.6786 40.2098 25.6899L39.5858 25.8071L39.2958 25.8608L39.2118 26.144C38.7172 27.8133 37.9821 29.4051 37.0311 30.8726C36.7481 31.2745 36.2036 31.6491 35.451 31.9321C34.7064 32.2121 33.8074 32.3847 32.8856 32.4175C31.0042 32.4843 29.211 31.9714 28.3749 30.8569C26.9693 28.9787 26.508 26.2887 26.3749 25.0698L26.3729 25.0591L26.3719 25.0483L26.3505 24.9438C26.2912 24.7033 26.1596 24.4861 25.9725 24.3218C25.7587 24.1341 25.4857 24.0269 25.202 24.0161L25.1952 24.1958L25.1913 24.0151H25.1835L25.1796 24.2046L25.1727 24.0161C24.8891 24.027 24.617 24.1342 24.4032 24.3218C24.1892 24.5096 24.0473 24.7662 24.0038 25.0483L24.0018 25.0591L24.0009 25.0698C23.8675 26.2902 23.4123 28.9795 21.9999 30.8569C21.1597 31.972 19.3661 32.4844 17.4852 32.4175C16.5635 32.3847 15.6649 32.2122 14.9198 31.9321C14.168 31.6495 13.6212 31.2765 13.3358 30.8745C12.387 29.4051 11.6537 27.812 11.1561 26.1431L11.0721 25.8618L10.7831 25.8071L10.1639 25.6899H10.1649C10.107 25.6785 10.0558 25.6497 10.0184 25.6089C9.99976 25.5885 9.9852 25.5656 9.97449 25.5415L9.95496 25.4663L9.68738 22.603C9.68619 22.5508 9.70181 22.4988 9.73425 22.4546C9.76742 22.4094 9.81593 22.3738 9.8739 22.3569C12.3365 21.7367 14.8714 21.4353 17.4139 21.4585H17.4325C19.625 21.3937 21.8085 21.7654 23.8495 22.5522C24.2685 22.7378 24.7223 22.8359 25.1815 22.8384H25.1864C25.645 22.8359 26.0979 22.7383 26.5165 22.5532C28.5557 21.7668 30.7369 21.3947 32.9276 21.4585Z" fill="#525252" stroke="white" stroke-width="0.96555"/>
<path d="M32.9344 21.4585H32.9501C35.4962 21.4541 38.0321 21.7753 40.493 22.4155C40.5513 22.4323 40.6004 22.4678 40.6337 22.5132C40.6667 22.5582 40.6814 22.6114 40.6796 22.6646L40.6561 22.9292C38.1436 22.2902 35.5584 21.9675 32.9628 21.9683H32.9637C30.6393 21.8954 28.3239 22.2905 26.161 23.1304L26.1512 23.1343L26.1415 23.1392C25.8407 23.2716 25.5138 23.3403 25.1835 23.3403C24.8533 23.3403 24.5271 23.2715 24.2264 23.1392L24.2167 23.1343L24.2069 23.1304L23.7997 22.979C21.8905 22.2926 19.8717 21.9478 17.8387 21.9604L17.4032 21.9683C14.8095 21.9677 12.2264 22.2901 9.7157 22.9282L9.68738 22.603C9.68619 22.5508 9.70181 22.4988 9.73425 22.4546C9.76742 22.4094 9.81593 22.3738 9.8739 22.3569C12.3365 21.7367 14.8714 21.4353 17.4139 21.4585H17.4325C19.6254 21.3937 21.8092 21.766 23.8505 22.5532C24.2693 22.7406 24.7237 22.8383 25.1835 22.8384C25.6428 22.8384 26.097 22.7403 26.5155 22.5532C28.5571 21.7657 30.7411 21.3938 32.9344 21.4585Z" fill="#656769" stroke="white" stroke-width="0.96555"/>
<path d="M25.1838 24.4982C25.3578 24.5048 25.5239 24.5707 25.6536 24.6846C25.7834 24.7984 25.8685 24.9531 25.8945 25.1219C26.0292 26.3548 26.5005 29.1581 27.9892 31.1469C29.9492 33.7594 35.9863 33.209 37.4301 31.1469C38.407 29.6363 39.1625 27.9984 39.6744 26.2814L40.2953 26.164C40.4535 26.133 40.5973 26.0527 40.7051 25.935C40.813 25.8173 40.8792 25.6685 40.8938 25.5109L41.1631 22.6856C41.1697 22.5218 41.1203 22.3606 41.0227 22.2276C40.9251 22.0946 40.7849 21.9975 40.6245 21.9517C38.1203 21.2993 35.54 20.9712 32.949 20.9757C30.6894 20.9089 28.4395 21.2934 26.3359 22.1058C25.9743 22.2681 25.5815 22.3532 25.1838 22.3553C24.7861 22.3532 24.3934 22.2681 24.0318 22.1058C21.9282 21.2934 19.6783 20.9089 17.4186 20.9757C14.8303 20.952 12.25 21.2604 9.7432 21.893C9.58278 21.9387 9.44259 22.0359 9.34497 22.1689C9.24735 22.3019 9.19793 22.4631 9.20457 22.6268L9.47389 25.5109C9.48851 25.6685 9.55468 25.8173 9.66254 25.935C9.77039 26.0527 9.91415 26.133 10.0724 26.164L10.6933 26.2814C11.2052 27.9984 11.9606 29.6363 12.9376 31.1469C14.3889 33.209 20.4185 33.7594 22.386 31.1469C23.8822 29.1581 24.346 26.3548 24.4806 25.1219C24.5066 24.9531 24.5918 24.7984 24.7215 24.6846C24.8512 24.5707 25.0174 24.5048 25.1913 24.4982H25.1838Z" stroke="white" stroke-width="0.96555" stroke-linecap="round" stroke-linejoin="round"/>
<path d="M17.3482 22.926H17.3521C20.3027 22.926 21.293 23.319 21.9322 24.094C22.0397 24.2245 22.1397 24.4822 22.1763 24.8997C22.2119 25.3052 22.1831 25.8056 22.0904 26.3606C21.9052 27.469 21.4755 28.731 20.8853 29.7795C20.7431 30.0221 20.4382 30.271 19.9634 30.4778C19.4977 30.6806 18.9164 30.8218 18.2974 30.8831C17.0346 31.0079 15.7564 30.7877 15.0396 30.2473C14.6799 29.9761 14.2966 29.5132 13.9341 28.9202C13.5754 28.3332 13.2538 27.6472 13.0074 26.9612C12.7604 26.2735 12.5942 25.6016 12.5357 25.0422C12.4741 24.4535 12.5436 24.0965 12.6451 23.9426L12.649 23.9368C12.8003 23.7002 13.2279 23.4226 14.0748 23.218C14.8924 23.0205 15.9979 22.9152 17.3482 22.926Z" fill="#656769" stroke="white" stroke-width="0.96555"/>
<path d="M13.3188 27.769C13.0111 27.0812 12.775 26.3545 12.6411 25.7007C12.5524 25.2675 12.5109 24.8794 12.519 24.5649C12.5275 24.2388 12.5881 24.0459 12.6479 23.9536C12.8036 23.714 13.2334 23.4371 14.0786 23.23C14.8939 23.0303 15.9949 22.919 17.3413 22.9185L13.3188 27.769Z" fill="#87898C" stroke="white" stroke-width="0.96555"/>
<path d="M33.0173 22.926H33.0212C34.3714 22.9152 35.4751 23.0206 36.2917 23.218C37.1364 23.4223 37.5671 23.6993 37.7224 23.9387L37.7244 23.9426C37.826 24.0965 37.8958 24.4539 37.8347 25.0432C37.7767 25.6026 37.6117 26.2745 37.3669 26.9622C37.1226 27.6485 36.804 28.3347 36.45 28.9221C36.0921 29.516 35.7155 29.9803 35.364 30.2512C34.6688 30.7871 33.385 31.0084 32.1042 30.8831C31.4778 30.8217 30.8883 30.68 30.4158 30.4768C29.9333 30.2693 29.6252 30.0202 29.4841 29.7795C28.894 28.7311 28.4652 27.4689 28.28 26.3606C28.1873 25.8056 28.1576 25.3052 28.1931 24.8997C28.2298 24.4824 28.3298 24.2245 28.4373 24.094C29.0765 23.3191 30.067 22.926 33.0173 22.926Z" fill="#656769" stroke="white" stroke-width="0.96555"/>
<path d="M28.6339 27.7896C28.408 27.0883 28.2587 26.3907 28.2023 25.7759C28.1636 25.3546 28.1698 24.985 28.2169 24.687C28.265 24.3833 28.3495 24.1906 28.4366 24.0845C29.0505 23.341 29.9891 22.9513 32.674 22.9214L28.6339 27.7896Z" fill="#87898C" stroke="white" stroke-width="0.96555"/>
<path d="M12.2427 23.6763C11.4423 24.8871 13.0357 29.3416 14.7488 30.6332C16.462 31.9248 20.4418 31.4918 21.3021 30.0241C22.544 27.8225 23.0976 24.7477 22.3046 23.7864C21.5116 22.825 20.3072 22.4434 17.3522 22.4434C14.6067 22.4214 12.7589 22.869 12.2427 23.6763ZM38.1267 23.6763C38.9272 24.8871 37.3338 29.3416 35.658 30.6332C33.9823 31.9248 29.9276 31.4918 29.0673 30.0241C27.8255 27.8225 27.2719 24.7477 28.0649 23.7864C28.8579 22.825 30.0623 22.4434 33.0173 22.4434C35.7628 22.4214 37.6031 22.869 38.1267 23.6763Z" stroke="white" stroke-width="0.96555" stroke-linecap="round" stroke-linejoin="round"/>
</svg>
