<svg width="27" height="28" viewBox="0 0 27 28" fill="none" xmlns="http://www.w3.org/2000/svg">
<path d="M13.7469 17.4822L15.4587 19.1691L20.5965 14.107L15.4599 9.04483L13.7481 10.733L15.9599 12.9139H6.83557V15.3H15.9599L13.7469 17.4822Z" fill="black"/>
<path fill-rule="evenodd" clip-rule="evenodd" d="M23.1 23.3867C28.3008 18.2613 28.3008 9.95279 23.1 4.82741C17.8992 -0.297979 9.46858 -0.297979 4.26782 4.82741C-0.932942 9.95279 -0.932942 18.2613 4.26782 23.3867C9.46858 28.512 17.8992 28.512 23.1 23.3867ZM21.3882 21.6997C22.3999 20.7026 23.2025 19.5189 23.7501 18.2161C24.2976 16.9134 24.5794 15.5171 24.5794 14.107C24.5794 12.6969 24.2976 11.3007 23.7501 9.99793C23.2025 8.69518 22.3999 7.51147 21.3882 6.51439C20.3765 5.51732 19.1753 4.72639 17.8534 4.18677C16.5315 3.64716 15.1147 3.36942 13.6839 3.36942C12.2531 3.36942 10.8363 3.64716 9.51437 4.18677C8.19247 4.72639 6.99136 5.51732 5.97962 6.5144C3.93631 8.52809 2.78839 11.2592 2.78839 14.107C2.78839 16.9548 3.93631 19.686 5.97962 21.6997C8.02292 23.7134 10.7942 24.8446 13.6839 24.8446C16.5736 24.8446 19.3449 23.7134 21.3882 21.6997Z" fill="black"/>
</svg>
