<svg width="49" height="48" viewBox="0 0 49 48" fill="none" xmlns="http://www.w3.org/2000/svg">
<rect x="0.762787" y="0.872192" width="47.6395" height="46.7327" rx="11.9008" fill="#FFBF00"/>
<path opacity="0.15" d="M17.2622 38.047C17.2622 38.339 18.0969 38.6189 19.5826 38.8254C21.0683 39.0318 23.0834 39.1478 25.1845 39.1478C27.2856 39.1478 29.3007 39.0318 30.7864 38.8254C32.2721 38.6189 33.1068 38.339 33.1068 38.047C33.1068 37.7551 32.2721 37.4751 30.7864 37.2686C29.3007 37.0622 27.2856 36.9462 25.1845 36.9462C23.0834 36.9462 21.0683 37.0622 19.5826 37.2686C18.0969 37.4751 17.2622 37.7551 17.2622 38.047Z" fill="#9A4CC2"/>
<path d="M38.5005 15.1874C38.5517 14.9747 38.6632 14.7806 38.822 14.6274C38.9808 14.4742 39.1806 14.3681 39.3982 14.3214L41.1712 13.9178C41.2011 13.9081 41.2272 13.8895 41.2456 13.8644C41.2641 13.8394 41.2741 13.8093 41.2741 13.7784C41.2741 13.7475 41.2641 13.7173 41.2456 13.6923C41.2272 13.6673 41.2011 13.6486 41.1712 13.6389L39.3982 13.2353C39.1796 13.1881 38.9792 13.0809 38.8203 12.9263C38.6614 12.7717 38.5505 12.576 38.5005 12.362L38.0965 10.6228C38.0867 10.5934 38.0676 10.5679 38.0421 10.5497C38.0166 10.5316 37.9859 10.5219 37.9544 10.5219C37.9228 10.5219 37.8921 10.5316 37.8666 10.5497C37.8411 10.5679 37.8221 10.5934 37.8122 10.6228L37.4008 12.362C37.3519 12.5726 37.2429 12.7651 37.0866 12.9172C36.9303 13.0692 36.7331 13.1745 36.518 13.2206L34.7525 13.6243C34.7226 13.6339 34.6965 13.6526 34.678 13.6776C34.6596 13.7027 34.6496 13.7328 34.6496 13.7637C34.6496 13.7946 34.6596 13.8247 34.678 13.8498C34.6965 13.8748 34.7226 13.8935 34.7525 13.9031L36.518 14.3067C36.734 14.3534 36.9319 14.4598 37.0883 14.6132C37.2447 14.7667 37.3532 14.9608 37.4008 15.1727L37.8122 16.9046C37.8221 16.9339 37.8411 16.9595 37.8666 16.9776C37.8921 16.9958 37.9228 17.0055 37.9544 17.0055C37.9859 17.0055 38.0166 16.9958 38.0421 16.9776C38.0676 16.9595 38.0867 16.9339 38.0965 16.9046L38.5005 15.1874ZM12.0703 37.1589L13.6264 36.6452C13.6553 36.6371 13.6806 36.6196 13.6982 36.5957C13.7159 36.5717 13.7248 36.5427 13.7236 36.5131C13.724 36.4829 13.7149 36.4533 13.6975 36.4283C13.6801 36.4034 13.6553 36.3843 13.6264 36.3737L12.3471 35.9554C12.2611 35.9288 12.1828 35.8822 12.119 35.8196C12.0552 35.757 12.0077 35.6803 11.9806 35.5958L11.5542 34.3776C11.5434 34.3493 11.5239 34.3249 11.4985 34.3079C11.473 34.2908 11.4428 34.2818 11.412 34.2822C11.3819 34.2811 11.3523 34.2898 11.3279 34.3071C11.3035 34.3244 11.2857 34.3493 11.2774 34.3776L10.851 35.6325C10.821 35.7166 10.7716 35.7928 10.7068 35.8552C10.6419 35.9175 10.5632 35.9644 10.4769 35.9921L9.19767 36.4104C9.16879 36.421 9.14395 36.4401 9.12654 36.465C9.10913 36.49 9.10001 36.5196 9.10041 36.5498C9.09924 36.5794 9.10818 36.6084 9.1258 36.6324C9.14343 36.6563 9.16874 36.6738 9.19767 36.6819L10.4769 37.1002C10.5643 37.1282 10.6437 37.176 10.7087 37.2397C10.7738 37.3035 10.8225 37.3814 10.851 37.4672L11.2774 38.722C11.2857 38.7504 11.3035 38.7752 11.3279 38.7925C11.3523 38.8098 11.3819 38.8186 11.412 38.8174C11.4428 38.8178 11.473 38.8089 11.4985 38.7918C11.5239 38.7747 11.5434 38.7504 11.5542 38.722L12.0703 37.1589Z" fill="white" stroke="#251C29" stroke-width="0.96555" stroke-linecap="round" stroke-linejoin="round"/>
<path d="M25.1838 24.4485C25.3578 24.4552 25.5239 24.5211 25.6536 24.635C25.7834 24.7488 25.8685 24.9035 25.8945 25.0723C26.0292 26.3052 26.5005 29.1085 27.9892 31.0973C29.9492 33.7098 35.9863 33.1594 37.4301 31.0973C38.4097 29.5881 39.1653 27.9498 39.6744 26.2318L40.3028 26.1144C40.461 26.0834 40.6048 26.003 40.7126 25.8853C40.8205 25.7676 40.8866 25.6189 40.9013 25.4613L41.1631 22.6359C41.1697 22.4722 41.1203 22.3109 41.0227 22.178C40.9251 22.045 40.7849 21.9478 40.6245 21.9021C38.1179 21.2491 35.535 20.9209 32.9416 20.9261C30.6844 20.8603 28.4371 21.2448 26.3359 22.0562C25.9743 22.2185 25.5815 22.3036 25.1838 22.3057C24.7861 22.3036 24.3934 22.2185 24.0318 22.0562C21.9282 21.2438 19.6783 20.8593 17.4186 20.9261C14.8303 20.9024 12.25 21.2108 9.7432 21.8434C9.58278 21.8891 9.44259 21.9862 9.34497 22.1192C9.24735 22.2522 9.19793 22.4135 9.20457 22.5772L9.47388 25.4613C9.48851 25.6189 9.55468 25.7676 9.66254 25.8853C9.77039 26.003 9.91415 26.0834 10.0724 26.1144L10.6933 26.2318C11.2052 27.9488 11.9606 29.5867 12.9376 31.0973C14.3889 33.1594 20.4185 33.7098 22.386 31.0973C23.8822 29.1085 24.346 26.3052 24.4806 25.0723C24.5066 24.9035 24.5918 24.7488 24.7215 24.635C24.8512 24.5211 25.0174 24.4552 25.1913 24.4485H25.1838Z" fill="#525252"/>
<path d="M9.30182 23.678C9.40452 23.5248 9.56198 23.4148 9.7432 23.3698C12.2486 22.7248 14.8284 22.3992 17.4186 22.4011C19.6786 22.3302 21.9294 22.7149 24.0318 23.5312C24.3941 23.6908 24.7867 23.7733 25.1838 23.7733C25.581 23.7733 25.9736 23.6908 26.3359 23.5312C28.4383 22.7149 30.6891 22.3302 32.949 22.4011C35.5393 22.3992 38.119 22.7248 40.6245 23.3698C40.8106 23.422 40.9688 23.543 41.0658 23.7074L41.1631 22.6359C41.1697 22.4722 41.1203 22.3109 41.0227 22.178C40.9251 22.045 40.7849 21.9478 40.6245 21.9021C38.1203 21.2497 35.54 20.9216 32.949 20.9261C30.6894 20.8593 28.4395 21.2438 26.3359 22.0562C25.9749 22.2204 25.5818 22.3055 25.1838 22.3055C24.7859 22.3055 24.3928 22.2204 24.0318 22.0562C21.9282 21.2438 19.6783 20.8593 17.4186 20.9261C14.8303 20.9024 12.25 21.2108 9.7432 21.8434C9.58278 21.8891 9.44259 21.9862 9.34497 22.1192C9.24735 22.2522 9.19793 22.4135 9.20457 22.5772L9.30182 23.678Z" fill="#656769"/>
<path d="M25.1838 24.4485C25.3578 24.4552 25.5239 24.5211 25.6536 24.635C25.7834 24.7488 25.8685 24.9035 25.8945 25.0723C26.0292 26.3052 26.5005 29.1085 27.9892 31.0973C29.9492 33.7098 35.9863 33.1594 37.4301 31.0973C38.407 29.5867 39.1625 27.9488 39.6744 26.2318L40.2953 26.1144C40.4535 26.0834 40.5973 26.003 40.7051 25.8853C40.813 25.7676 40.8792 25.6189 40.8938 25.4613L41.1631 22.6359C41.1697 22.4722 41.1203 22.3109 41.0227 22.178C40.9251 22.045 40.7849 21.9478 40.6245 21.9021C38.1203 21.2497 35.54 20.9216 32.949 20.9261C30.6894 20.8593 28.4395 21.2438 26.3359 22.0562C25.9743 22.2185 25.5815 22.3036 25.1838 22.3057C24.7861 22.3036 24.3934 22.2185 24.0318 22.0562C21.9282 21.2438 19.6783 20.8593 17.4186 20.9261C14.8303 20.9024 12.25 21.2108 9.7432 21.8434C9.58278 21.8891 9.44259 21.9862 9.34497 22.1192C9.24735 22.2522 9.19793 22.4135 9.20457 22.5772L9.47389 25.4613C9.48851 25.6189 9.55468 25.7676 9.66254 25.8853C9.77039 26.003 9.91415 26.0834 10.0724 26.1144L10.6933 26.2318C11.2052 27.9488 11.9606 29.5867 12.9376 31.0973C14.3889 33.1594 20.4185 33.7098 22.386 31.0973C23.8822 29.1085 24.346 26.3052 24.4806 25.0723C24.5066 24.9035 24.5918 24.7488 24.7215 24.635C24.8512 24.5211 25.0174 24.4552 25.1913 24.4485H25.1838Z" stroke="#251C29" stroke-width="0.96555" stroke-linecap="round" stroke-linejoin="round"/>
<path d="M12.2427 23.6267C11.4423 24.8375 13.0357 29.292 14.7488 30.5836C16.462 31.8752 20.4418 31.4422 21.3021 29.9745C22.544 27.7729 23.0976 24.6981 22.3046 23.7367C21.5116 22.7754 20.3072 22.3938 17.3522 22.3938C14.6067 22.3718 12.7589 22.8194 12.2427 23.6267Z" fill="#656769"/>
<path d="M18.3694 22.3864H17.352C14.6065 22.3864 12.7662 22.8341 12.2425 23.6413C11.7189 24.4485 12.2425 26.7969 13.2151 28.6022L18.3694 22.3864Z" fill="#87898C"/>
<path d="M38.1271 23.6267C38.9275 24.8375 37.3341 29.292 35.6584 30.5836C33.9826 31.8752 29.928 31.4422 29.0677 29.9745C27.8258 27.7729 27.2722 24.6981 28.0652 23.7367C28.8582 22.7754 30.0626 22.3938 33.0176 22.3938C35.7631 22.3718 37.6034 22.8194 38.1271 23.6267Z" fill="#656769"/>
<path d="M33.7048 22.3864H33.0166C30.0616 22.3864 28.8572 22.768 28.0642 23.7294C27.4134 24.5219 27.6677 26.7235 28.4682 28.6976L33.7048 22.3864Z" fill="#87898C"/>
<path d="M12.2427 23.6267C11.4423 24.8375 13.0357 29.292 14.7488 30.5836C16.462 31.8752 20.4418 31.4422 21.3021 29.9745C22.544 27.7729 23.0976 24.6981 22.3046 23.7367C21.5116 22.7754 20.3072 22.3938 17.3522 22.3938C14.6067 22.3718 12.7589 22.8194 12.2427 23.6267ZM38.1267 23.6267C38.9272 24.8375 37.3338 29.292 35.658 30.5836C33.9823 31.8752 29.9276 31.4422 29.0673 29.9745C27.8255 27.7729 27.2719 24.6981 28.0649 23.7367C28.8579 22.7754 30.0623 22.3938 33.0173 22.3938C35.7628 22.3718 37.6031 22.8194 38.1267 23.6267Z" stroke="#251C29" stroke-width="0.96555" stroke-linecap="round" stroke-linejoin="round"/>
</svg>
