<svg width="343" height="145" viewBox="0 0 343 145" fill="none" xmlns="http://www.w3.org/2000/svg">
<rect x="0.513245" width="342.487" height="143.768" rx="5" fill="#491B6D"/>
<mask id="mask0_2469_434" style="mask-type:alpha" maskUnits="userSpaceOnUse" x="0" y="0" width="343" height="144">
<rect width="342.487" height="143.768" rx="5" fill="#66328E"/>
</mask>
<g mask="url(#mask0_2469_434)">
<ellipse cx="286.487" cy="-79.6256" rx="169.672" ry="179.158" fill="#C983DE" fill-opacity="0.75"/>
<path d="M286.486 -233.9C379.86 -233.9 455.606 -153.965 455.607 -55.296C455.607 43.3734 379.86 123.309 286.486 123.309C193.113 123.309 117.367 43.3732 117.367 -55.296C117.367 -153.965 193.113 -233.9 286.486 -233.9Z" stroke="white" stroke-width="1.10591"/>
</g>
<path d="M27.2616 78.9803H23.4794L17.1535 69.4031V78.9803H13.3713V63.4533H17.1535L23.4794 73.0747V63.4533H27.2616V78.9803ZM41.6374 72.6102C41.6374 72.9641 41.6153 73.3328 41.571 73.7161H33.0113C33.0703 74.4829 33.3136 75.0727 33.7412 75.4856C34.1835 75.8837 34.7218 76.0828 35.3558 76.0828C36.2995 76.0828 36.9557 75.6847 37.3243 74.8884H41.3499C41.1434 75.6994 40.7674 76.4293 40.2218 77.0781C39.691 77.7269 39.0201 78.2356 38.2091 78.6043C37.3981 78.9729 36.4912 79.1572 35.4885 79.1572C34.2794 79.1572 33.203 78.8992 32.2593 78.3831C31.3155 77.867 30.5783 77.1297 30.0474 76.1713C29.5166 75.2128 29.2512 74.0922 29.2512 72.8093C29.2512 71.5264 29.5092 70.4058 30.0253 69.4473C30.5562 68.4889 31.2934 67.7516 32.2371 67.2355C33.1809 66.7194 34.2646 66.4614 35.4885 66.4614C36.6829 66.4614 37.7446 66.712 38.6735 67.2134C39.6025 67.7147 40.325 68.4299 40.8411 69.3589C41.372 70.2878 41.6374 71.3716 41.6374 72.6102ZM37.7667 71.6149C37.7667 70.9661 37.5455 70.45 37.1032 70.0666C36.6608 69.6833 36.1078 69.4916 35.4443 69.4916C34.8102 69.4916 34.272 69.6759 33.8297 70.0445C33.402 70.4132 33.1366 70.9366 33.0334 71.6149H37.7667ZM61.3494 66.6383L58.0095 78.9803H53.8292L51.8828 70.9735L49.87 78.9803H45.7118L42.3498 66.6383H46.1321L47.8794 75.4635L49.9585 66.6383H53.9619L56.0631 75.4193L57.7884 66.6383H61.3494ZM74.8222 79.1351C73.3624 79.1351 72.0205 78.796 70.7966 78.1177C69.5875 77.4394 68.6217 76.4957 67.8992 75.2865C67.1914 74.0627 66.8375 72.6913 66.8375 71.1726C66.8375 69.6538 67.1914 68.2898 67.8992 67.0807C68.6217 65.8715 69.5875 64.9278 70.7966 64.2495C72.0205 63.5713 73.3624 63.2321 74.8222 63.2321C76.282 63.2321 77.6164 63.5713 78.8256 64.2495C80.0494 64.9278 81.0079 65.8715 81.7009 67.0807C82.4087 68.2898 82.7626 69.6538 82.7626 71.1726C82.7626 72.6913 82.4087 74.0627 81.7009 75.2865C80.9931 76.4957 80.0347 77.4394 78.8256 78.1177C77.6164 78.796 76.282 79.1351 74.8222 79.1351ZM74.8222 75.6847C76.0608 75.6847 77.0487 75.2718 77.786 74.446C78.538 73.6203 78.914 72.5291 78.914 71.1726C78.914 69.8012 78.538 68.7101 77.786 67.8991C77.0487 67.0733 76.0608 66.6604 74.8222 66.6604C73.5688 66.6604 72.5661 67.0659 71.8141 67.8769C71.0768 68.6879 70.7082 69.7865 70.7082 71.1726C70.7082 72.5439 71.0768 73.6424 71.8141 74.4682C72.5661 75.2792 73.5688 75.6847 74.8222 75.6847ZM91.0599 69.7791H89.025V78.9803H85.2428V69.7791H83.8714V66.6383H85.2428V66.2844C85.2428 64.7656 85.6778 63.6155 86.5478 62.834C87.4177 62.0377 88.6932 61.6396 90.3742 61.6396C90.6544 61.6396 90.8608 61.647 90.9935 61.6617V64.8689C90.271 64.8246 89.7623 64.9278 89.4674 65.1785C89.1724 65.4292 89.025 65.8789 89.025 66.5277V66.6383H91.0599V69.7791ZM99.0302 69.7791H96.9953V78.9803H93.2131V69.7791H91.8418V66.6383H93.2131V66.2844C93.2131 64.7656 93.6481 63.6155 94.5181 62.834C95.3881 62.0377 96.6636 61.6396 98.3445 61.6396C98.6247 61.6396 98.8311 61.647 98.9639 61.6617V64.8689C98.2413 64.8246 97.7326 64.9278 97.4377 65.1785C97.1428 65.4292 96.9953 65.8789 96.9953 66.5277V66.6383H99.0302V69.7791ZM112.442 72.6102C112.442 72.9641 112.42 73.3328 112.375 73.7161H103.816C103.875 74.4829 104.118 75.0727 104.545 75.4856C104.988 75.8837 105.526 76.0828 106.16 76.0828C107.104 76.0828 107.76 75.6847 108.129 74.8884H112.154C111.948 75.6994 111.572 76.4293 111.026 77.0781C110.495 77.7269 109.824 78.2356 109.013 78.6043C108.202 78.9729 107.295 79.1572 106.293 79.1572C105.084 79.1572 104.007 78.8992 103.064 78.3831C102.12 77.867 101.383 77.1297 100.852 76.1713C100.321 75.2128 100.055 74.0922 100.055 72.8093C100.055 71.5264 100.313 70.4058 100.83 69.4473C101.36 68.4889 102.098 67.7516 103.041 67.2355C103.985 66.7194 105.069 66.4614 106.293 66.4614C107.487 66.4614 108.549 66.712 109.478 67.2134C110.407 67.7147 111.129 68.4299 111.645 69.3589C112.176 70.2878 112.442 71.3716 112.442 72.6102ZM108.571 71.6149C108.571 70.9661 108.35 70.45 107.907 70.0666C107.465 69.6833 106.912 69.4916 106.249 69.4916C105.614 69.4916 105.076 69.6759 104.634 70.0445C104.206 70.4132 103.941 70.9366 103.838 71.6149H108.571ZM118.219 68.6953C118.662 68.017 119.214 67.4862 119.878 67.1028C120.542 66.7047 121.279 66.5056 122.09 66.5056V70.509H121.05C120.107 70.509 119.399 70.7154 118.927 71.1283C118.455 71.5264 118.219 72.2342 118.219 73.2517V78.9803H114.437V66.6383H118.219V68.6953ZM128.874 62.9003L128.432 73.495H125.225L124.782 62.9003H128.874ZM126.884 79.1572C126.22 79.1572 125.674 78.9655 125.247 78.5822C124.834 78.184 124.628 77.6974 124.628 77.1224C124.628 76.5325 124.834 76.0386 125.247 75.6404C125.674 75.2423 126.22 75.0432 126.884 75.0432C127.532 75.0432 128.063 75.2423 128.476 75.6404C128.904 76.0386 129.118 76.5325 129.118 77.1224C129.118 77.6974 128.904 78.184 128.476 78.5822C128.063 78.9655 127.532 79.1572 126.884 79.1572Z" fill="white"/>
<path d="M16.7068 113.089C15.9842 113.089 15.334 112.965 14.7559 112.717C14.1779 112.459 13.7237 112.098 13.3934 111.633C13.0631 111.169 12.898 110.627 12.898 110.008H14.7869C14.8282 110.472 15.0088 110.854 15.3288 111.153C15.6591 111.453 16.1184 111.602 16.7068 111.602C17.3157 111.602 17.7906 111.458 18.1312 111.169C18.4718 110.869 18.6421 110.488 18.6421 110.023C18.6421 109.662 18.5337 109.368 18.317 109.141C18.1105 108.913 17.8473 108.738 17.5273 108.614C17.2177 108.49 16.7842 108.356 16.2268 108.212C15.5249 108.026 14.952 107.84 14.5082 107.654C14.0747 107.458 13.7031 107.159 13.3934 106.756C13.0838 106.354 12.929 105.817 12.929 105.146C12.929 104.527 13.0838 103.985 13.3934 103.52C13.7031 103.056 14.1366 102.7 14.694 102.452C15.2514 102.204 15.8965 102.08 16.6293 102.08C17.6719 102.08 18.5234 102.344 19.184 102.87C19.8549 103.386 20.2265 104.098 20.2988 105.007H18.3479C18.317 104.614 18.1312 104.279 17.7906 104C17.4499 103.722 17.0009 103.582 16.4436 103.582C15.9378 103.582 15.5249 103.711 15.2049 103.969C14.885 104.227 14.725 104.599 14.725 105.084C14.725 105.414 14.823 105.688 15.0191 105.905C15.2256 106.111 15.4836 106.276 15.7933 106.4C16.1029 106.524 16.5261 106.658 17.0629 106.803C17.7751 106.999 18.3531 107.195 18.7969 107.391C19.2511 107.587 19.633 107.892 19.9427 108.304C20.2626 108.707 20.4226 109.249 20.4226 109.93C20.4226 110.477 20.273 110.993 19.9736 111.478C19.6846 111.964 19.2563 112.356 18.6886 112.655C18.1312 112.944 17.4706 113.089 16.7068 113.089ZM30.3241 108.506C30.3241 108.826 30.3034 109.115 30.2622 109.373H23.7439C23.7955 110.054 24.0484 110.601 24.5026 111.014C24.9567 111.427 25.5141 111.633 26.1747 111.633C27.1243 111.633 27.7952 111.236 28.1875 110.441H30.0918C29.8338 111.226 29.3642 111.871 28.6829 112.376C28.012 112.872 27.1759 113.12 26.1747 113.12C25.3593 113.12 24.6264 112.939 23.9762 112.578C23.3362 112.206 22.8304 111.69 22.4588 111.029C22.0976 110.359 21.9169 109.584 21.9169 108.707C21.9169 107.83 22.0924 107.061 22.4434 106.4C22.8046 105.729 23.3052 105.213 23.9452 104.852C24.5955 104.491 25.3386 104.31 26.1747 104.31C26.9798 104.31 27.6972 104.485 28.3268 104.836C28.9564 105.187 29.4467 105.683 29.7977 106.323C30.1486 106.952 30.3241 107.68 30.3241 108.506ZM28.4816 107.948C28.4713 107.298 28.2391 106.777 27.7849 106.385C27.3308 105.992 26.7682 105.796 26.0973 105.796C25.4883 105.796 24.9671 105.992 24.5335 106.385C24.1 106.767 23.842 107.288 23.7594 107.948H28.4816ZM39.8799 108.506C39.8799 108.826 39.8592 109.115 39.8179 109.373H33.2997C33.3513 110.054 33.6042 110.601 34.0583 111.014C34.5125 111.427 35.0699 111.633 35.7305 111.633C36.6801 111.633 37.351 111.236 37.7432 110.441H39.6476C39.3896 111.226 38.9199 111.871 38.2387 112.376C37.5678 112.872 36.7317 113.12 35.7305 113.12C34.915 113.12 34.1822 112.939 33.5319 112.578C32.892 112.206 32.3862 111.69 32.0146 111.029C31.6533 110.359 31.4727 109.584 31.4727 108.707C31.4727 107.83 31.6482 107.061 31.9991 106.4C32.3604 105.729 32.861 105.213 33.501 104.852C34.1512 104.491 34.8944 104.31 35.7305 104.31C36.5356 104.31 37.2529 104.485 37.8826 104.836C38.5122 105.187 39.0025 105.683 39.3534 106.323C39.7044 106.952 39.8799 107.68 39.8799 108.506ZM38.0374 107.948C38.0271 107.298 37.7948 106.777 37.3407 106.385C36.8865 105.992 36.324 105.796 35.6531 105.796C35.0441 105.796 34.5228 105.992 34.0893 106.385C33.6558 106.767 33.3977 107.288 33.3152 107.948H38.0374ZM45.0504 107.577C45.0504 106.524 45.2929 105.58 45.7781 104.743C46.2735 103.907 46.9393 103.257 47.7753 102.793C48.6217 102.318 49.5455 102.08 50.5468 102.08C51.6925 102.08 52.7092 102.364 53.5969 102.932C54.4949 103.489 55.1451 104.284 55.5477 105.316H53.4265C53.1479 104.749 52.7608 104.325 52.2653 104.047C51.7699 103.768 51.197 103.629 50.5468 103.629C49.8345 103.629 49.1998 103.789 48.6424 104.109C48.085 104.429 47.6463 104.888 47.3263 105.487C47.0167 106.085 46.8619 106.782 46.8619 107.577C46.8619 108.372 47.0167 109.068 47.3263 109.667C47.6463 110.266 48.085 110.73 48.6424 111.06C49.1998 111.38 49.8345 111.54 50.5468 111.54C51.197 111.54 51.7699 111.401 52.2653 111.122C52.7608 110.844 53.1479 110.42 53.4265 109.853H55.5477C55.1451 110.885 54.4949 111.68 53.5969 112.237C52.7092 112.794 51.6925 113.073 50.5468 113.073C49.5352 113.073 48.6114 112.841 47.7753 112.376C46.9393 111.902 46.2735 111.246 45.7781 110.41C45.2929 109.574 45.0504 108.63 45.0504 107.577ZM59.3787 101.523V112.98H57.6137V101.523H59.3787ZM69.5148 108.506C69.5148 108.826 69.4942 109.115 69.4529 109.373H62.9346C62.9863 110.054 63.2391 110.601 63.6933 111.014C64.1475 111.427 64.7048 111.633 65.3654 111.633C66.3151 111.633 66.986 111.236 67.3782 110.441H69.2826C69.0245 111.226 68.5549 111.871 67.8736 112.376C67.2027 112.872 66.3667 113.12 65.3654 113.12C64.55 113.12 63.8172 112.939 63.1669 112.578C62.5269 112.206 62.0212 111.69 61.6496 111.029C61.2883 110.359 61.1077 109.584 61.1077 108.707C61.1077 107.83 61.2832 107.061 61.6341 106.4C61.9954 105.729 62.496 105.213 63.1359 104.852C63.7862 104.491 64.5294 104.31 65.3654 104.31C66.1705 104.31 66.8879 104.485 67.5175 104.836C68.1472 105.187 68.6375 105.683 68.9884 106.323C69.3394 106.952 69.5148 107.68 69.5148 108.506ZM67.6724 107.948C67.6621 107.298 67.4298 106.777 66.9756 106.385C66.5215 105.992 65.9589 105.796 65.288 105.796C64.679 105.796 64.1578 105.992 63.7243 106.385C63.2908 106.767 63.0327 107.288 62.9501 107.948H67.6724ZM70.6634 108.676C70.6634 107.819 70.8389 107.061 71.1899 106.4C71.5511 105.74 72.0363 105.229 72.6452 104.867C73.2646 104.496 73.9458 104.31 74.689 104.31C75.3599 104.31 75.9431 104.444 76.4385 104.712C76.9443 104.971 77.3468 105.296 77.6462 105.688V104.449H79.4267V112.98H77.6462V111.711C77.3468 112.113 76.9391 112.449 76.423 112.717C75.9069 112.985 75.3186 113.12 74.658 113.12C73.9252 113.12 73.2542 112.934 72.6452 112.562C72.0363 112.18 71.5511 111.654 71.1899 110.983C70.8389 110.302 70.6634 109.533 70.6634 108.676ZM77.6462 108.707C77.6462 108.119 77.5223 107.608 77.2746 107.174C77.0372 106.741 76.7224 106.41 76.3301 106.183C75.9379 105.956 75.5147 105.843 75.0606 105.843C74.6064 105.843 74.1832 105.956 73.791 106.183C73.3987 106.4 73.0788 106.725 72.831 107.159C72.5936 107.582 72.4749 108.088 72.4749 108.676C72.4749 109.264 72.5936 109.781 72.831 110.224C73.0788 110.668 73.3987 111.009 73.791 111.246C74.1935 111.473 74.6167 111.587 75.0606 111.587C75.5147 111.587 75.9379 111.473 76.3301 111.246C76.7224 111.019 77.0372 110.689 77.2746 110.255C77.5223 109.811 77.6462 109.295 77.6462 108.707ZM83.51 105.688C83.7681 105.254 84.1087 104.919 84.5319 104.682C84.9654 104.434 85.4763 104.31 86.0647 104.31V106.137H85.6157C84.9241 106.137 84.3977 106.312 84.0364 106.663C83.6855 107.014 83.51 107.623 83.51 108.49V112.98H81.745V104.449H83.51V105.688ZM89.4521 101.523V112.98H87.6871V101.523H89.4521ZM99.4489 104.449L94.2158 116.99H92.3888L94.1229 112.841L90.7631 104.449H92.7294L95.1292 110.952L97.622 104.449H99.4489ZM108.317 102.22C109.463 102.22 110.464 102.442 111.321 102.886C112.188 103.319 112.854 103.949 113.318 104.774C113.793 105.59 114.031 106.545 114.031 107.639C114.031 108.733 113.793 109.682 113.318 110.488C112.854 111.293 112.188 111.912 111.321 112.345C110.464 112.769 109.463 112.98 108.317 112.98H104.803V102.22H108.317ZM108.317 111.54C109.577 111.54 110.542 111.2 111.213 110.519C111.884 109.837 112.219 108.877 112.219 107.639C112.219 106.39 111.884 105.414 111.213 104.712C110.542 104.011 109.577 103.66 108.317 103.66H106.568V111.54H108.317ZM115.191 108.676C115.191 107.819 115.367 107.061 115.718 106.4C116.079 105.74 116.564 105.229 117.173 104.867C117.793 104.496 118.474 104.31 119.217 104.31C119.888 104.31 120.471 104.444 120.967 104.712C121.472 104.971 121.875 105.296 122.174 105.688V104.449H123.955V112.98H122.174V111.711C121.875 112.113 121.467 112.449 120.951 112.717C120.435 112.985 119.847 113.12 119.186 113.12C118.453 113.12 117.782 112.934 117.173 112.562C116.564 112.18 116.079 111.654 115.718 110.983C115.367 110.302 115.191 109.533 115.191 108.676ZM122.174 108.707C122.174 108.119 122.05 107.608 121.803 107.174C121.565 106.741 121.25 106.41 120.858 106.183C120.466 105.956 120.043 105.843 119.589 105.843C119.134 105.843 118.711 105.956 118.319 106.183C117.927 106.4 117.607 106.725 117.359 107.159C117.122 107.582 117.003 108.088 117.003 108.676C117.003 109.264 117.122 109.781 117.359 110.224C117.607 110.668 117.927 111.009 118.319 111.246C118.722 111.473 119.145 111.587 119.589 111.587C120.043 111.587 120.466 111.473 120.858 111.246C121.25 111.019 121.565 110.689 121.803 110.255C122.05 109.811 122.174 109.295 122.174 108.707ZM127.171 103.319C126.851 103.319 126.583 103.211 126.366 102.994C126.149 102.777 126.041 102.509 126.041 102.189C126.041 101.869 126.149 101.6 126.366 101.384C126.583 101.167 126.851 101.059 127.171 101.059C127.481 101.059 127.744 101.167 127.961 101.384C128.177 101.6 128.286 101.869 128.286 102.189C128.286 102.509 128.177 102.777 127.961 102.994C127.744 103.211 127.481 103.319 127.171 103.319ZM128.038 104.449V112.98H126.273V104.449H128.038ZM132.12 101.523V112.98H130.355V101.523H132.12ZM142.117 104.449L136.884 116.99H135.057L136.791 112.841L133.431 104.449H135.398L137.798 110.952L140.29 104.449H142.117Z" fill="white"/>
<path d="M333.362 143.574C332.913 144.376 331.982 144.674 331.063 144.674H237.288C237.046 144.674 236.81 144.654 236.575 144.594C234.769 144.133 226.536 141.417 225.622 130.083C224.791 119.777 227.59 109.605 228.69 106.094C228.953 105.252 229.513 104.545 230.25 104.06L264.961 81.2453C265.444 80.9276 265.852 80.5133 266.185 80.0411C267.861 77.6713 273.69 70.1601 281.645 67.9943C281.874 67.9292 282.107 67.8714 282.34 67.8172C292.205 65.5559 297.546 66.9946 297.546 66.9946C297.546 66.9946 299.052 67.517 301.424 68.6197C301.559 68.6829 301.697 68.748 301.838 68.815C304.813 70.2249 308.994 72.4827 313.266 75.6965C313.401 75.7995 313.537 75.9026 313.674 76.0073C318.687 79.8486 323.775 85.0074 327.139 91.6541C335.401 107.987 337.196 136.72 333.362 143.574Z" fill="white"/>
<path d="M297.469 66.1453C297.52 66.7055 297.457 67.2656 297.256 67.7909C296.348 70.1617 293.366 77.073 289.121 78.0917C284.947 79.0933 282.673 74.9393 281.967 73.3467C281.793 72.9556 281.721 72.5303 281.713 72.1025L281.603 65.5375L281.551 62.4199C281.53 61.1574 282.095 59.9565 283.081 59.1677L289.981 53.6484C292.519 51.6183 296.296 53.2272 296.59 56.4637L296.838 59.1927L297.469 66.1453Z" fill="#FFAEA2"/>
<path d="M296.713 57.8196C296.794 58.7105 296.592 59.6153 296.058 60.3328C292.696 64.8488 288.332 65.9395 284.764 65.8807C282.907 65.8501 281.581 64.2111 281.55 62.3534C281.53 61.1332 282.076 59.9724 283.029 59.21L289.981 53.6488C292.519 51.6187 296.296 53.2277 296.59 56.4642L296.713 57.8196Z" fill="#D87268"/>
<path d="M303.667 84.2195C306.115 81.9547 308.671 79.8071 311.317 77.7771C312.008 77.2466 312.704 76.7231 313.405 76.2055C313.54 76.1064 313.541 75.9057 313.408 75.8048C313.323 75.7398 313.206 75.7373 313.118 75.7978C308.364 79.0499 303.953 82.8775 299.933 86.9709C298.666 88.2634 297.471 89.6463 296.701 91.2984C296.598 91.5189 296.787 91.7595 297.021 91.7413C299.975 91.5093 301.262 94.9151 299.653 97.4029C296.685 101.99 294.286 106.944 292.509 112.112C291.762 114.282 291.124 116.489 290.595 118.721C290.546 118.927 290.702 119.123 290.914 119.123C291.066 119.123 291.199 119.018 291.234 118.869C292.536 113.37 294.514 108.032 297.129 103.019C299.127 99.1888 301.496 95.5593 304.211 92.1969C304.372 91.9981 304.24 91.7359 304.013 91.68C303.28 91.4998 302.539 91.3581 301.794 91.2547C299.931 90.9964 298.809 89.0413 300.11 87.6833C301.254 86.4881 302.452 85.3421 303.667 84.2195Z" fill="#D8BFBC"/>
<path d="M301.6 68.7024C301.497 68.654 301.377 68.6892 301.315 68.7841C300.447 70.1029 299.7 71.503 299.027 72.9381C297.858 75.4326 296.856 78.0085 295.923 80.5969C294.042 85.8191 292.534 91.1751 291.336 96.5943C290.128 102.051 289.235 107.577 288.592 113.131C288.372 115.017 288.183 116.906 288.019 118.797C288.004 118.972 288.142 119.123 288.318 119.123C288.473 119.123 288.603 119.003 288.617 118.848C288.719 117.677 288.829 116.506 288.952 115.336C289.526 109.848 290.336 104.384 291.443 98.9771C292.554 93.5378 293.975 88.1656 295.743 82.9037C296.621 80.2917 297.581 77.705 298.641 75.1616C299.518 73.0563 300.49 70.9745 301.699 69.0356C301.772 68.9181 301.725 68.7614 301.6 68.7024Z" fill="#D8BFBC"/>
<path d="M290.755 130.452C290.462 129.56 290.571 128.595 290.987 127.753C292.244 125.21 295.035 119.782 296.211 119.26C297.389 118.736 304.39 121.494 310.285 122.823C312.801 123.39 314.738 125.872 314.222 128.4L311.629 141.119C311.216 143.146 309.352 144.524 307.343 144.033C302.394 142.825 293.713 139.462 290.755 130.452Z" fill="white"/>
<path d="M283.517 70.8333H239.065C236.813 70.8333 234.987 72.6592 234.987 74.9114V140.324C234.987 142.576 236.813 144.402 239.065 144.402H283.517C285.769 144.402 287.595 142.576 287.595 140.324V74.9114C287.595 72.6592 285.769 70.8333 283.517 70.8333Z" fill="#C9D5FF"/>
<path d="M287.866 140.595C287.866 142.847 286.04 144.673 283.788 144.673H238.794C236.541 144.673 234.716 142.847 234.716 140.595V74.6402C234.716 72.388 236.541 70.5622 238.794 70.5622H283.788C286.04 70.5622 287.866 72.388 287.866 74.6402V140.595ZM235.258 140.053C235.258 142.305 237.084 144.131 239.336 144.131H283.245C285.498 144.131 287.323 142.305 287.323 140.053V75.1824C287.323 72.9301 285.498 71.1043 283.245 71.1043H239.336C237.084 71.1043 235.258 72.9301 235.258 75.1824V140.053Z" fill="#3D43A5"/>
<path d="M279.201 75.5597H243.38C241.128 75.5597 239.302 77.3855 239.302 79.6378V135.597C239.302 137.85 241.128 139.675 243.38 139.675H279.201C281.453 139.675 283.279 137.85 283.279 135.597V79.6377C283.279 77.3855 281.453 75.5597 279.201 75.5597Z" fill="white"/>
<path d="M247.456 89.0841C247.788 89.0841 248.12 89.0905 248.452 89.081C248.587 89.0773 248.648 89.123 248.706 89.2478C249.333 90.5974 250.413 91.318 251.883 91.3324C253.352 91.3468 254.439 90.6247 255.068 89.2968C256.051 87.219 254.566 84.7087 252.282 84.4827C250.668 84.3233 249.172 85.2859 248.662 86.6535C248.609 86.794 248.521 86.7907 248.41 86.7905C247.754 86.7893 247.097 86.7806 246.441 86.7952C246.217 86.8002 246.201 86.7146 246.247 86.5389C246.436 85.8227 246.723 85.1487 247.173 84.5599C248.509 82.8101 250.287 81.9752 252.479 82.1974C254.672 82.4195 256.271 83.5784 257.189 85.5836C258.68 88.841 256.79 92.6228 253.276 93.4824C250.193 94.2368 247.054 92.3693 246.273 89.3232C246.222 89.1242 246.25 89.0697 246.459 89.0799C246.791 89.0961 247.124 89.0841 247.456 89.0841Z" fill="#3D43A5"/>
<path d="M274.998 86.7898C274.674 86.7898 274.349 86.7822 274.025 86.7931C273.866 86.7985 273.786 86.7506 273.716 86.5954C273.125 85.277 272.094 84.5624 270.659 84.4672C268.689 84.3365 266.988 85.9995 267.044 87.9715C267.091 89.6276 268.226 90.9567 269.875 91.2855C271.411 91.5918 273.033 90.7466 273.682 89.2925C273.75 89.139 273.825 89.0749 274.002 89.0787C274.643 89.0916 275.284 89.0836 275.926 89.0838C276.199 89.0838 276.199 89.0841 276.126 89.3583C275.521 91.6161 273.632 93.2621 271.272 93.589C268.472 93.9769 265.761 92.2599 264.962 89.5918C264.002 86.3884 265.881 83.1124 269.133 82.32C272.272 81.5552 275.434 83.4941 276.164 86.6256C276.201 86.7855 276.137 86.7919 276.018 86.7907C275.678 86.7876 275.338 86.7898 274.998 86.7898Z" fill="#3D43A5"/>
<path d="M261.803 102.216C261.803 102.201 261.804 102.185 261.802 102.17C261.762 101.839 261.827 101.617 262.169 101.416C262.837 101.027 263.079 100.179 262.829 99.4433C262.579 98.7031 261.87 98.2206 261.103 98.2665C260.334 98.3128 259.694 98.8651 259.52 99.6327C259.344 100.411 259.744 101.235 260.477 101.575C260.61 101.636 260.662 101.7 260.655 101.847C260.643 102.109 260.637 102.373 260.656 102.634C260.672 102.85 260.581 102.854 260.422 102.801C259.328 102.437 258.619 101.704 258.392 100.572C258.017 98.7035 259.445 97.0488 261.348 97.1068C262.629 97.1459 263.745 98.1206 264.018 99.4388C264.315 100.874 263.452 102.34 262.056 102.772C261.803 102.85 261.803 102.85 261.803 102.587C261.802 102.463 261.803 102.34 261.803 102.216Z" fill="#3D43A5"/>
<path d="M251.726 99.4237C251.465 99.3963 251.191 99.5021 250.943 99.4201C250.774 99.3645 250.645 99.2258 250.52 99.0091C250.115 98.3054 249.199 98.0715 248.421 98.3955C247.662 98.7117 247.246 99.4963 247.402 100.318C247.549 101.098 248.268 101.694 249.068 101.692C249.79 101.69 250.325 101.369 250.658 100.729C250.722 100.607 250.792 100.565 250.924 100.57C251.194 100.579 251.466 100.586 251.735 100.568C251.943 100.554 251.943 100.637 251.89 100.791C251.524 101.853 250.805 102.526 249.706 102.783C248.485 103.068 247.181 102.476 246.561 101.357C245.954 100.261 246.137 98.8756 247.005 97.9963C248.589 96.3924 251.27 97.052 251.896 99.1959C251.949 99.3796 251.925 99.4452 251.726 99.4237Z" fill="#3D43A5"/>
<path d="M271.066 99.4213C270.974 99.4213 270.881 99.4213 270.788 99.4213C270.43 99.4213 270.43 99.4213 270.55 99.0695C271.08 97.5123 272.768 96.7214 274.343 97.2916C275.825 97.8281 276.583 99.5447 275.999 101.041C275.557 102.174 274.399 102.905 273.138 102.847C271.952 102.793 270.868 101.946 270.527 100.816C270.472 100.637 270.477 100.539 270.703 100.57C270.801 100.584 270.905 100.583 271.003 100.571C271.416 100.518 271.699 100.606 271.95 101.018C272.344 101.666 273.229 101.859 273.951 101.574C274.674 101.288 275.1 100.578 275.025 99.7835C274.956 99.0457 274.356 98.4106 273.603 98.2766C272.854 98.1436 272.067 98.5235 271.752 99.2065C271.666 99.3926 271.57 99.4414 271.391 99.4234C271.283 99.4124 271.174 99.4213 271.066 99.4213Z" fill="#3D43A5"/>
<path d="M248.114 106.308C249.029 106.304 249.847 106.986 249.994 107.877C250.158 108.866 249.631 109.774 248.721 110.079C248.576 110.127 248.483 110.133 248.511 109.936C248.52 109.876 248.519 109.813 248.512 109.752C248.482 109.495 248.539 109.319 248.791 109.156C249.242 108.864 249.372 108.315 249.186 107.822C249.015 107.369 248.557 107.06 248.088 107.082C247.565 107.106 247.146 107.44 247.009 107.942C246.872 108.443 247.11 109.019 247.584 109.258C247.734 109.333 247.763 109.419 247.755 109.56C247.748 109.683 247.743 109.808 247.756 109.93C247.776 110.119 247.694 110.132 247.543 110.084C246.239 109.67 245.781 108.05 246.641 107.012C247.014 106.561 247.537 106.311 248.114 106.308Z" fill="#3D43A5"/>
<path d="M275.933 107.85C275.81 107.85 275.684 107.886 275.564 107.859C275.442 107.833 275.344 107.734 275.247 107.572C274.991 107.138 274.419 106.968 273.945 107.125C273.482 107.278 273.153 107.718 273.153 108.186C273.152 108.721 273.475 109.166 273.974 109.32C274.444 109.464 275.011 109.276 275.266 108.836C275.387 108.628 275.524 108.601 275.727 108.604C276.281 108.612 276.281 108.607 276.022 109.098C275.606 109.886 274.694 110.292 273.825 110.074C272.959 109.858 272.372 109.082 272.378 108.161C272.384 107.316 273.012 106.553 273.866 106.353C274.811 106.131 275.779 106.654 276.122 107.572C276.224 107.845 276.221 107.849 275.933 107.85Z" fill="#3D43A5"/>
<path d="M255.21 108.607C255.331 108.606 255.455 108.579 255.574 108.603C255.69 108.626 255.792 108.707 255.887 108.865C256.145 109.294 256.711 109.465 257.169 109.312C257.677 109.143 257.999 108.686 257.974 108.169C257.95 107.664 257.598 107.228 257.12 107.109C256.607 106.982 256.076 107.189 255.832 107.648C255.738 107.823 255.632 107.877 255.454 107.851C255.424 107.846 255.392 107.85 255.361 107.85C254.868 107.85 254.862 107.839 255.086 107.378C255.482 106.565 256.444 106.134 257.331 106.371C258.218 106.607 258.814 107.448 258.752 108.375C258.693 109.252 257.944 110.022 257.049 110.125C256.182 110.225 255.338 109.716 255.021 108.901C254.909 108.613 254.913 108.608 255.21 108.607Z" fill="#3D43A5"/>
<path d="M265.198 106.507C265.18 106.675 265.257 106.858 265.185 107.011C265.141 107.103 265.05 107.182 264.918 107.259C264.492 107.509 264.325 108.061 264.47 108.542C264.616 109.021 265.06 109.347 265.567 109.346C266.072 109.345 266.514 109.018 266.662 108.536C266.811 108.051 266.634 107.523 266.185 107.244C265.997 107.127 265.931 107.003 265.961 106.8C265.984 106.645 265.883 106.411 266.014 106.35C266.156 106.284 266.346 106.422 266.5 106.511C267.325 106.99 267.689 107.993 267.359 108.874C267.031 109.749 266.113 110.27 265.208 110.094C264.364 109.931 263.711 109.196 263.662 108.356C263.608 107.419 264.131 106.636 264.989 106.354C265.152 106.301 265.218 106.328 265.198 106.507Z" fill="#3D43A5"/>
<path d="M274.309 113.629C274.594 113.527 274.533 114.149 274.273 114.305C273.948 114.501 273.834 114.915 273.958 115.286C274.078 115.642 274.422 115.886 274.787 115.875C275.167 115.863 275.492 115.602 275.595 115.226C275.695 114.865 275.548 114.487 275.227 114.28C275.077 114.184 274.975 113.818 275.052 113.656C275.101 113.553 275.172 113.622 275.229 113.639C276.192 113.925 276.52 115.224 275.824 115.989C275.441 116.41 274.803 116.574 274.3 116.382C273.686 116.147 273.333 115.633 273.331 114.971C273.33 114.397 273.708 113.855 274.256 113.649C274.275 113.642 274.293 113.635 274.309 113.629Z" fill="#3D43A5"/>
<path d="M246.244 115.475C246.144 115.196 246.771 115.262 246.927 115.515C246.928 115.517 246.929 115.519 246.931 115.522C247.122 115.841 247.531 115.954 247.889 115.833C248.265 115.706 248.5 115.391 248.497 115.021C248.494 114.653 248.236 114.311 247.884 114.209C247.49 114.094 247.113 114.23 246.893 114.563C246.798 114.708 246.413 114.816 246.27 114.732C246.172 114.675 246.239 114.593 246.261 114.529C246.484 113.882 247.192 113.486 247.892 113.611C248.558 113.73 249.046 114.291 249.071 114.965C249.096 115.657 248.646 116.244 247.955 116.421C247.317 116.583 246.616 116.254 246.325 115.655C246.289 115.579 246.261 115.521 246.244 115.475Z" fill="#3D43A5"/>
<path d="M269.145 115.32C269.277 115.331 269.38 115.441 269.332 115.565C269.139 116.07 268.634 116.435 268.073 116.456C267.38 116.481 266.767 116.038 266.597 115.388C266.402 114.644 266.816 113.889 267.543 113.66C268.289 113.425 269.079 113.794 269.351 114.504C269.44 114.738 269.439 114.731 269.185 114.744C268.966 114.756 268.815 114.717 268.674 114.505C268.392 114.083 267.791 114.052 267.41 114.397C267.047 114.726 267.047 115.323 267.41 115.653C267.78 115.991 268.412 115.956 268.678 115.544C268.807 115.345 268.944 115.303 269.145 115.32Z" fill="#3D43A5"/>
<path d="M254.124 113.818C254.124 113.903 254.149 113.989 254.131 114.072C254.11 114.166 254.027 114.239 253.913 114.312C253.605 114.51 253.492 114.915 253.609 115.278C253.724 115.632 254.067 115.882 254.433 115.875C254.811 115.868 255.139 115.611 255.247 115.235C255.348 114.887 255.21 114.503 254.91 114.298C254.738 114.181 254.635 113.851 254.709 113.665C254.752 113.558 254.823 113.617 254.88 113.637C255.393 113.81 255.697 114.178 255.819 114.692C255.98 115.373 255.637 116.043 254.999 116.332C254.394 116.607 253.675 116.421 253.279 115.889C252.863 115.329 252.894 114.542 253.353 114.031C253.5 113.866 253.681 113.751 253.879 113.661C254.1 113.561 254.122 113.579 254.124 113.818Z" fill="#3D43A5"/>
<path d="M261.485 116.101C261.469 115.975 261.481 115.847 261.666 115.746C261.997 115.565 262.13 115.168 262.03 114.803C261.928 114.431 261.594 114.17 261.214 114.164C260.847 114.159 260.499 114.41 260.387 114.761C260.271 115.124 260.406 115.53 260.714 115.747C260.88 115.865 260.97 116.168 260.905 116.367C260.873 116.462 260.816 116.428 260.759 116.412C260.276 116.28 259.843 115.756 259.779 115.226C259.706 114.626 260 114.035 260.508 113.762C261.01 113.493 261.671 113.546 262.078 113.887C262.92 114.596 262.792 115.848 261.827 116.339C261.516 116.497 261.486 116.48 261.485 116.101Z" fill="#3D43A5"/>
<path d="M246.237 121.893C246.17 121.717 246.565 121.755 246.662 121.917C246.782 122.116 247.037 122.187 247.259 122.111C247.494 122.032 247.641 121.836 247.639 121.605C247.637 121.376 247.476 121.163 247.257 121.099C247.011 121.028 246.776 121.112 246.639 121.32C246.58 121.41 246.34 121.477 246.251 121.425C246.19 121.39 246.231 121.339 246.245 121.299C246.384 120.895 246.825 120.648 247.262 120.726C247.677 120.8 247.981 121.15 247.996 121.57C248.012 122.002 247.732 122.368 247.301 122.478C246.903 122.579 246.466 122.374 246.285 122.001C246.264 121.956 246.247 121.921 246.237 121.893Z" fill="#3D43A5"/>
<path d="M261.643 121.791C261.726 121.798 261.789 121.867 261.76 121.944C261.639 122.259 261.325 122.486 260.975 122.499C260.543 122.515 260.161 122.239 260.055 121.834C259.933 121.37 260.191 120.9 260.645 120.757C261.109 120.61 261.602 120.84 261.771 121.283C261.827 121.429 261.826 121.424 261.668 121.432C261.531 121.44 261.437 121.416 261.349 121.283C261.174 121.02 260.799 121.001 260.562 121.216C260.335 121.421 260.335 121.793 260.561 121.999C260.793 122.209 261.186 122.188 261.352 121.931C261.432 121.806 261.518 121.78 261.643 121.791Z" fill="#3D43A5"/>
<path d="M251.145 120.855C251.146 120.908 251.161 120.962 251.15 121.014C251.137 121.072 251.086 121.118 251.014 121.163C250.822 121.287 250.752 121.539 250.825 121.766C250.896 121.986 251.11 122.142 251.338 122.138C251.574 122.133 251.778 121.973 251.846 121.739C251.908 121.522 251.822 121.282 251.635 121.155C251.528 121.082 251.464 120.876 251.51 120.76C251.537 120.693 251.581 120.73 251.617 120.743C251.936 120.851 252.126 121.08 252.202 121.4C252.302 121.825 252.088 122.242 251.691 122.423C251.314 122.594 250.866 122.478 250.619 122.146C250.36 121.797 250.379 121.307 250.665 120.988C250.756 120.886 250.87 120.814 250.993 120.758C251.131 120.696 251.144 120.706 251.145 120.855Z" fill="#3D43A5"/>
<path d="M256.652 122.278C256.642 122.2 256.649 122.12 256.764 122.057C256.97 121.944 257.054 121.697 256.991 121.47C256.928 121.238 256.719 121.075 256.482 121.071C256.254 121.068 256.037 121.225 255.967 121.443C255.895 121.669 255.979 121.923 256.171 122.058C256.275 122.131 256.33 122.321 256.29 122.444C256.27 122.504 256.235 122.482 256.199 122.473C255.898 122.39 255.628 122.064 255.588 121.734C255.543 121.359 255.726 120.991 256.043 120.821C256.355 120.653 256.768 120.686 257.021 120.899C257.546 121.341 257.466 122.121 256.865 122.427C256.67 122.525 256.652 122.514 256.652 122.278Z" fill="#3D43A5"/>
<path d="M275.204 120.737C275.381 120.674 275.343 121.061 275.181 121.159C274.979 121.28 274.907 121.539 274.985 121.77C275.06 121.992 275.274 122.144 275.502 122.137C275.738 122.13 275.941 121.967 276.005 121.732C276.067 121.508 275.975 121.272 275.776 121.143C275.683 121.083 275.619 120.855 275.667 120.754C275.698 120.69 275.741 120.733 275.777 120.743C276.377 120.921 276.582 121.731 276.148 122.208C275.909 122.47 275.512 122.573 275.198 122.453C274.815 122.306 274.595 121.986 274.594 121.573C274.593 121.215 274.829 120.878 275.17 120.75C275.183 120.745 275.194 120.741 275.204 120.737Z" fill="#3D43A5"/>
<path d="M271.438 121.791C271.52 121.798 271.583 121.867 271.554 121.944C271.433 122.259 271.119 122.486 270.769 122.499C270.337 122.515 269.955 122.239 269.849 121.834C269.728 121.37 269.985 120.9 270.439 120.757C270.904 120.61 271.396 120.84 271.565 121.283C271.621 121.429 271.62 121.424 271.462 121.432C271.326 121.44 271.232 121.416 271.144 121.283C270.968 121.02 270.593 121.001 270.356 121.216C270.129 121.421 270.129 121.793 270.356 121.999C270.587 122.209 270.98 122.188 271.146 121.931C271.227 121.806 271.312 121.78 271.438 121.791Z" fill="#3D43A5"/>
<path d="M266.115 122.278C266.105 122.2 266.113 122.12 266.228 122.057C266.434 121.944 266.517 121.697 266.455 121.47C266.391 121.238 266.183 121.075 265.946 121.071C265.717 121.068 265.501 121.225 265.431 121.443C265.359 121.669 265.442 121.923 265.634 122.058C265.738 122.131 265.794 122.321 265.753 122.444C265.734 122.504 265.698 122.482 265.662 122.473C265.361 122.39 265.092 122.064 265.052 121.734C265.006 121.359 265.189 120.991 265.506 120.821C265.819 120.653 266.231 120.686 266.484 120.899C267.009 121.341 266.93 122.121 266.328 122.427C266.134 122.525 266.115 122.514 266.115 122.278Z" fill="#3D43A5"/>
<path d="M246.233 127.909C246.18 127.768 246.494 127.799 246.571 127.928C246.666 128.086 246.869 128.142 247.046 128.082C247.232 128.019 247.349 127.863 247.348 127.68C247.346 127.497 247.218 127.328 247.044 127.277C246.849 127.221 246.662 127.287 246.553 127.453C246.506 127.524 246.315 127.578 246.244 127.537C246.196 127.508 246.228 127.468 246.239 127.436C246.35 127.116 246.701 126.919 247.048 126.981C247.378 127.04 247.62 127.318 247.632 127.652C247.644 127.995 247.421 128.286 247.079 128.374C246.763 128.454 246.415 128.291 246.271 127.994C246.254 127.959 246.241 127.931 246.233 127.909Z" fill="#3D43A5"/>
<path d="M258.483 127.827C258.548 127.833 258.599 127.888 258.575 127.949C258.479 128.199 258.229 128.38 257.951 128.39C257.608 128.403 257.304 128.183 257.22 127.861C257.123 127.493 257.328 127.119 257.689 127.005C258.058 126.888 258.45 127.071 258.584 127.423C258.629 127.539 258.628 127.536 258.502 127.542C258.394 127.548 258.319 127.529 258.249 127.424C258.11 127.215 257.811 127.199 257.623 127.37C257.443 127.533 257.443 127.829 257.623 127.993C257.806 128.16 258.119 128.143 258.251 127.939C258.315 127.84 258.383 127.819 258.483 127.827Z" fill="#3D43A5"/>
<path d="M250.136 127.084C250.136 127.126 250.148 127.168 250.139 127.209C250.129 127.256 250.088 127.292 250.032 127.328C249.879 127.426 249.823 127.627 249.881 127.807C249.938 127.983 250.108 128.106 250.289 128.103C250.477 128.1 250.639 127.972 250.693 127.786C250.743 127.614 250.674 127.423 250.526 127.322C250.44 127.264 250.389 127.1 250.426 127.008C250.447 126.955 250.482 126.984 250.511 126.994C250.765 127.08 250.916 127.262 250.976 127.517C251.055 127.854 250.885 128.186 250.569 128.33C250.27 128.466 249.913 128.374 249.717 128.11C249.511 127.832 249.527 127.443 249.754 127.189C249.827 127.108 249.917 127.05 250.015 127.006C250.124 126.957 250.135 126.965 250.136 127.084Z" fill="#3D43A5"/>
<path d="M254.514 128.215C254.506 128.153 254.512 128.089 254.603 128.039C254.767 127.949 254.833 127.753 254.784 127.572C254.733 127.387 254.568 127.258 254.379 127.255C254.198 127.253 254.025 127.377 253.97 127.551C253.912 127.731 253.979 127.932 254.131 128.04C254.214 128.098 254.258 128.248 254.226 128.347C254.211 128.393 254.182 128.377 254.154 128.369C253.915 128.303 253.7 128.044 253.668 127.781C253.632 127.484 253.778 127.191 254.029 127.056C254.278 126.922 254.606 126.949 254.807 127.118C255.225 127.469 255.161 128.089 254.683 128.333C254.529 128.411 254.514 128.403 254.514 128.215Z" fill="#3D43A5"/>
<path d="M268.562 126.99C268.703 126.939 268.673 127.247 268.544 127.325C268.383 127.422 268.326 127.627 268.388 127.811C268.447 127.987 268.618 128.108 268.799 128.103C268.987 128.097 269.148 127.968 269.199 127.781C269.248 127.602 269.175 127.415 269.017 127.312C268.943 127.265 268.892 127.083 268.93 127.003C268.954 126.952 268.989 126.986 269.018 126.994C269.495 127.136 269.658 127.78 269.313 128.159C269.123 128.368 268.807 128.449 268.557 128.354C268.253 128.237 268.078 127.983 268.077 127.655C268.077 127.37 268.264 127.102 268.535 127C268.545 126.996 268.554 126.993 268.562 126.99Z" fill="#3D43A5"/>
<path d="M266.089 127.827C266.154 127.833 266.205 127.888 266.181 127.949C266.086 128.199 265.836 128.38 265.558 128.39C265.214 128.403 264.91 128.183 264.826 127.861C264.73 127.493 264.935 127.119 265.295 127.005C265.665 126.888 266.056 127.071 266.191 127.423C266.235 127.539 266.235 127.536 266.109 127.542C266 127.548 265.925 127.529 265.855 127.424C265.716 127.215 265.417 127.199 265.229 127.37C265.049 127.533 265.049 127.829 265.229 127.993C265.413 128.16 265.725 128.143 265.857 127.939C265.921 127.84 265.989 127.819 266.089 127.827Z" fill="#3D43A5"/>
<path d="M275.435 126.99C275.576 126.939 275.546 127.247 275.417 127.325C275.256 127.422 275.199 127.627 275.261 127.811C275.32 127.987 275.491 128.108 275.672 128.103C275.86 128.097 276.021 127.968 276.072 127.781C276.121 127.602 276.048 127.415 275.89 127.312C275.816 127.265 275.765 127.083 275.803 127.003C275.827 126.952 275.862 126.986 275.891 126.994C276.368 127.136 276.531 127.78 276.186 128.159C275.996 128.368 275.68 128.449 275.43 128.354C275.126 128.237 274.951 127.983 274.95 127.655C274.95 127.37 275.137 127.102 275.408 127C275.418 126.996 275.427 126.993 275.435 126.99Z" fill="#3D43A5"/>
<path d="M272.44 127.827C272.506 127.833 272.556 127.888 272.533 127.949C272.437 128.199 272.187 128.38 271.909 128.39C271.566 128.403 271.262 128.183 271.178 127.861C271.081 127.493 271.286 127.119 271.647 127.005C272.016 126.888 272.408 127.071 272.542 127.423C272.587 127.539 272.586 127.536 272.46 127.542C272.352 127.548 272.277 127.529 272.207 127.424C272.067 127.215 271.769 127.199 271.58 127.37C271.4 127.533 271.4 127.829 271.58 127.993C271.764 128.16 272.077 128.143 272.209 127.939C272.273 127.84 272.341 127.819 272.44 127.827Z" fill="#3D43A5"/>
<path d="M262.038 128.215C262.03 128.153 262.036 128.089 262.128 128.039C262.292 127.949 262.358 127.753 262.308 127.572C262.258 127.387 262.092 127.258 261.904 127.255C261.722 127.253 261.55 127.377 261.494 127.551C261.437 127.731 261.504 127.932 261.656 128.04C261.738 128.098 261.783 128.248 261.751 128.347C261.735 128.393 261.707 128.377 261.679 128.369C261.439 128.303 261.225 128.044 261.193 127.781C261.157 127.484 261.302 127.191 261.554 127.056C261.803 126.922 262.131 126.949 262.332 127.118C262.75 127.469 262.686 128.089 262.208 128.333C262.053 128.411 262.038 128.403 262.038 128.215Z" fill="#3D43A5"/>
<path d="M246.23 132.699C246.188 132.588 246.436 132.613 246.497 132.714C246.572 132.839 246.732 132.883 246.872 132.836C247.019 132.786 247.111 132.663 247.11 132.518C247.109 132.374 247.008 132.241 246.87 132.201C246.716 132.156 246.569 132.209 246.483 132.34C246.446 132.396 246.295 132.438 246.239 132.406C246.201 132.383 246.227 132.351 246.235 132.326C246.322 132.073 246.599 131.918 246.873 131.967C247.134 132.014 247.325 132.233 247.334 132.497C247.344 132.768 247.168 132.997 246.898 133.066C246.648 133.13 246.374 133.001 246.261 132.767C246.247 132.738 246.236 132.716 246.23 132.699Z" fill="#3D43A5"/>
<path d="M255.898 132.635C255.95 132.639 255.99 132.683 255.971 132.731C255.896 132.928 255.699 133.071 255.479 133.079C255.208 133.089 254.968 132.916 254.902 132.662C254.826 132.371 254.987 132.076 255.272 131.986C255.564 131.894 255.873 132.038 255.979 132.316C256.014 132.408 256.013 132.405 255.914 132.41C255.828 132.414 255.769 132.399 255.714 132.316C255.604 132.151 255.369 132.139 255.22 132.274C255.078 132.402 255.078 132.636 255.22 132.765C255.365 132.897 255.612 132.884 255.716 132.722C255.766 132.644 255.82 132.628 255.898 132.635Z" fill="#3D43A5"/>
<path d="M249.31 132.047C249.311 132.081 249.32 132.115 249.313 132.147C249.305 132.184 249.273 132.212 249.228 132.241C249.108 132.318 249.064 132.477 249.109 132.618C249.154 132.757 249.288 132.855 249.431 132.852C249.579 132.849 249.708 132.749 249.75 132.602C249.789 132.466 249.735 132.315 249.618 132.235C249.55 132.189 249.51 132.06 249.539 131.987C249.556 131.946 249.583 131.969 249.606 131.977C249.806 132.044 249.925 132.188 249.973 132.39C250.036 132.656 249.902 132.918 249.652 133.031C249.416 133.138 249.134 133.066 248.98 132.858C248.817 132.639 248.829 132.331 249.009 132.131C249.066 132.066 249.137 132.021 249.214 131.986C249.301 131.947 249.309 131.954 249.31 132.047Z" fill="#3D43A5"/>
<path d="M252.766 132.941C252.76 132.892 252.764 132.841 252.836 132.802C252.966 132.731 253.018 132.576 252.979 132.433C252.939 132.288 252.808 132.185 252.66 132.183C252.516 132.181 252.38 132.28 252.336 132.417C252.291 132.559 252.344 132.718 252.464 132.802C252.529 132.848 252.564 132.967 252.539 133.045C252.526 133.082 252.504 133.069 252.481 133.063C252.293 133.011 252.123 132.806 252.098 132.599C252.07 132.364 252.185 132.133 252.383 132.026C252.58 131.921 252.838 131.941 252.997 132.075C253.327 132.352 253.277 132.842 252.899 133.034C252.778 133.096 252.766 133.089 252.766 132.941Z" fill="#3D43A5"/>
<path d="M263.854 131.974C263.966 131.934 263.942 132.177 263.84 132.238C263.713 132.315 263.668 132.477 263.717 132.622C263.763 132.761 263.898 132.857 264.041 132.852C264.19 132.848 264.316 132.746 264.357 132.598C264.396 132.457 264.338 132.309 264.213 132.228C264.155 132.191 264.115 132.048 264.145 131.984C264.164 131.944 264.192 131.971 264.214 131.978C264.591 132.089 264.719 132.598 264.447 132.897C264.297 133.061 264.048 133.126 263.851 133.05C263.61 132.959 263.473 132.758 263.472 132.498C263.471 132.274 263.619 132.062 263.833 131.981C263.841 131.978 263.848 131.976 263.854 131.974Z" fill="#3D43A5"/>
<path d="M261.902 132.635C261.954 132.639 261.994 132.683 261.975 132.731C261.899 132.928 261.702 133.071 261.483 133.079C261.212 133.089 260.972 132.916 260.905 132.662C260.829 132.371 260.991 132.076 261.276 131.986C261.567 131.894 261.876 132.038 261.982 132.316C262.017 132.408 262.017 132.405 261.917 132.41C261.832 132.414 261.773 132.399 261.718 132.316C261.608 132.151 261.372 132.139 261.223 132.274C261.081 132.402 261.081 132.636 261.223 132.765C261.368 132.897 261.615 132.884 261.719 132.722C261.77 132.644 261.823 132.628 261.902 132.635Z" fill="#3D43A5"/>
<path d="M269.279 131.974C269.39 131.934 269.366 132.177 269.265 132.238C269.138 132.315 269.093 132.477 269.141 132.622C269.188 132.761 269.323 132.857 269.466 132.852C269.614 132.848 269.741 132.746 269.782 132.598C269.821 132.457 269.763 132.309 269.638 132.228C269.579 132.191 269.539 132.048 269.57 131.984C269.589 131.944 269.616 131.971 269.639 131.978C270.015 132.089 270.144 132.598 269.871 132.897C269.722 133.061 269.472 133.126 269.275 133.05C269.035 132.959 268.897 132.758 268.897 132.498C268.896 132.274 269.044 132.062 269.258 131.981C269.266 131.978 269.273 131.976 269.279 131.974Z" fill="#3D43A5"/>
<path d="M266.915 132.635C266.967 132.639 267.007 132.683 266.988 132.731C266.912 132.928 266.715 133.071 266.496 133.079C266.225 133.089 265.985 132.916 265.918 132.662C265.842 132.371 266.004 132.076 266.289 131.986C266.58 131.894 266.889 132.038 266.995 132.316C267.031 132.408 267.03 132.405 266.931 132.41C266.845 132.414 266.786 132.399 266.731 132.316C266.621 132.151 266.385 132.139 266.237 132.274C266.094 132.402 266.094 132.636 266.236 132.765C266.381 132.897 266.628 132.884 266.732 132.722C266.783 132.644 266.836 132.628 266.915 132.635Z" fill="#3D43A5"/>
<path d="M272.387 131.974C272.499 131.934 272.475 132.177 272.373 132.238C272.246 132.315 272.201 132.477 272.25 132.622C272.297 132.761 272.431 132.857 272.574 132.852C272.723 132.848 272.85 132.746 272.89 132.598C272.929 132.457 272.871 132.309 272.746 132.228C272.688 132.191 272.648 132.048 272.678 131.984C272.697 131.944 272.725 131.971 272.747 131.978C273.124 132.089 273.252 132.598 272.98 132.897C272.83 133.061 272.581 133.126 272.384 133.05C272.143 132.959 272.006 132.758 272.005 132.498C272.004 132.274 272.152 132.062 272.366 131.981C272.374 131.978 272.381 131.976 272.387 131.974Z" fill="#3D43A5"/>
<path d="M275.448 132.635C275.5 132.639 275.54 132.683 275.521 132.731C275.446 132.928 275.248 133.071 275.029 133.079C274.758 133.089 274.518 132.916 274.452 132.662C274.375 132.371 274.537 132.076 274.822 131.986C275.113 131.894 275.422 132.038 275.529 132.316C275.564 132.408 275.563 132.405 275.464 132.41C275.378 132.414 275.319 132.399 275.264 132.316C275.154 132.151 274.918 132.139 274.77 132.274C274.627 132.402 274.627 132.636 274.769 132.765C274.914 132.897 275.161 132.884 275.265 132.722C275.316 132.644 275.369 132.628 275.448 132.635Z" fill="#3D43A5"/>
<path d="M258.705 132.941C258.698 132.892 258.703 132.841 258.775 132.802C258.905 132.731 258.957 132.576 258.918 132.433C258.878 132.288 258.747 132.185 258.598 132.183C258.455 132.181 258.319 132.28 258.275 132.417C258.23 132.559 258.282 132.718 258.403 132.802C258.468 132.848 258.503 132.967 258.477 133.045C258.465 133.082 258.443 133.069 258.42 133.063C258.232 133.011 258.062 132.806 258.037 132.599C258.009 132.364 258.124 132.133 258.322 132.026C258.519 131.921 258.777 131.941 258.936 132.075C259.266 132.352 259.216 132.842 258.838 133.034C258.717 133.096 258.705 133.089 258.705 132.941Z" fill="#3D43A5"/>
<path d="M293.447 124.625C292.735 125.783 291.351 125.979 290.234 125.206C289.199 124.491 287.977 123.46 287.238 122.205C285.765 119.705 285.491 118.404 283.778 116.451C282.066 114.499 279.258 111.725 279.737 110.697C280.216 109.67 281.312 110.149 281.21 110.149C281.107 110.149 278.127 108.368 278.572 107.204C278.772 106.681 279.859 105.22 279.628 104.711C279.468 104.36 279.431 104.054 279.6 103.847C279.815 103.583 280.655 101.847 280.777 101.53C280.808 101.451 280.859 101.378 280.936 101.313C281.895 100.491 286.792 103.094 288.436 104.669C290.08 106.245 295.012 117.342 295.321 117.856C295.854 118.744 295.955 119.832 295.504 120.764C294.958 121.892 294.175 123.439 293.447 124.625Z" fill="#FFAEA2"/>
<path d="M286.84 115.061C286.793 114.874 286.663 114.7 286.564 114.534C286.462 114.362 286.351 114.197 286.237 114.033C286.023 113.727 285.8 113.425 285.577 113.126C285.197 112.617 284.809 112.113 284.381 111.643C283.959 111.18 283.502 110.748 282.976 110.404C282.73 110.243 282.47 110.099 282.195 109.995C281.93 109.894 281.588 109.765 281.301 109.814C281.178 109.835 281.104 110.003 281.22 110.087C281.444 110.249 281.742 110.33 281.989 110.459C282.249 110.595 282.498 110.748 282.736 110.921C283.22 111.275 283.65 111.703 284.043 112.155C284.448 112.621 284.814 113.118 285.183 113.612C285.409 113.917 285.635 114.224 285.874 114.519C286.085 114.78 286.319 115.107 286.61 115.28C286.754 115.367 286.871 115.186 286.84 115.061Z" fill="#D87268"/>
<path d="M287.65 111.942C287.458 111.641 287.251 111.352 287.03 111.071C286.604 110.529 286.132 110.02 285.625 109.552C284.633 108.637 283.423 107.739 282.099 107.392C281.952 107.354 281.853 107.58 281.978 107.664C282.526 108.031 283.104 108.346 283.646 108.722C284.202 109.108 284.737 109.522 285.233 109.985C285.718 110.438 286.163 110.931 286.567 111.457C286.769 111.721 286.961 111.993 287.144 112.27C287.235 112.409 287.328 112.546 287.423 112.682C287.517 112.817 287.611 112.987 287.752 113.076C287.906 113.173 288.08 113.08 288.082 112.897C288.085 112.581 287.815 112.202 287.65 111.942Z" fill="#D87268"/>
<path d="M289.281 110.135C289.254 109.988 289.179 109.87 289.126 109.733C289.066 109.579 288.993 109.428 288.908 109.284C288.744 109.004 288.566 108.737 288.376 108.475C287.997 107.953 287.594 107.448 287.163 106.968C286.308 106.016 285.347 105.153 284.247 104.494C283.935 104.307 283.613 104.139 283.282 103.989C282.999 103.862 282.624 103.686 282.309 103.696C282.206 103.699 282.195 103.825 282.253 103.884C282.447 104.082 282.763 104.215 283.005 104.352C283.273 104.504 283.534 104.667 283.791 104.837C284.3 105.174 284.79 105.545 285.251 105.945C286.175 106.748 286.995 107.662 287.722 108.646C287.928 108.924 288.119 109.214 288.329 109.489C288.43 109.621 288.527 109.758 288.635 109.884C288.749 110.017 288.865 110.178 289.004 110.285C289.112 110.368 289.309 110.286 289.281 110.135Z" fill="#D87268"/>
<path d="M239.61 103.239C239.554 103.653 238.891 105.564 238.797 105.971C238.386 107.752 232.815 107.843 229.755 107.524C226.696 107.204 226.011 105.925 225.326 103.003C224.641 100.08 224.869 95.0566 227.655 93.4127C230.44 91.7687 234.641 92.7733 236.605 93.6409C238.569 94.5085 239.71 95.8329 239.939 96.8375C239.949 96.8825 239.956 96.9263 239.959 96.9689C240.011 97.6589 239.634 99.1344 239.802 99.8058C239.814 99.8557 239.823 99.9042 239.828 99.9513C239.894 100.545 239.577 102.315 239.619 102.911C239.628 103.03 239.624 103.139 239.61 103.239Z" fill="#FFAEA2"/>
<path d="M237.953 104.042C237.568 103.997 237.188 103.923 236.802 103.883C236.416 103.843 236.029 103.81 235.642 103.777C234.853 103.71 234.064 103.645 233.275 103.583C232.5 103.523 231.725 103.464 230.95 103.408C230.562 103.38 230.174 103.352 229.786 103.324C229.399 103.297 229.021 103.269 228.645 103.387C228.492 103.434 228.506 103.65 228.636 103.713C228.981 103.878 229.356 103.903 229.732 103.93C230.12 103.958 230.508 103.986 230.896 104.014C231.686 104.071 232.477 104.124 233.268 104.176C234.045 104.228 234.822 104.275 235.598 104.321C235.987 104.344 236.376 104.365 236.766 104.382C237.158 104.398 237.549 104.379 237.942 104.389C238.14 104.394 238.148 104.065 237.953 104.042Z" fill="#D87268"/>
<path d="M238.422 101.124C238.206 100.841 237.871 100.732 237.54 100.642C237.115 100.527 236.684 100.431 236.253 100.34C235.35 100.15 234.434 100.013 233.517 99.9076C232.614 99.8043 231.707 99.7295 230.799 99.6835C230.349 99.6607 229.897 99.6446 229.446 99.6352C229.212 99.6303 228.978 99.6265 228.743 99.6331C228.52 99.6395 228.285 99.6324 228.078 99.7274C227.912 99.8038 227.887 100.05 228.068 100.129C228.437 100.291 228.931 100.23 229.33 100.236C229.772 100.243 230.215 100.257 230.658 100.278C231.522 100.32 232.385 100.388 233.245 100.482C234.106 100.576 234.96 100.701 235.818 100.821C236.253 100.882 236.687 100.954 237.122 101.02C237.476 101.074 237.936 101.067 238.204 101.333C238.328 101.456 238.526 101.259 238.422 101.124Z" fill="#D87268"/>
<path d="M238.367 98.027C238.191 97.9112 238.04 97.764 237.859 97.6511C237.686 97.5426 237.503 97.4452 237.318 97.3586C236.956 97.1893 236.576 97.0514 236.196 96.9278C235.392 96.667 234.571 96.4684 233.748 96.2779C232.906 96.0828 232.055 95.8961 231.192 95.8197C230.768 95.7822 230.337 95.7668 229.912 95.8046C229.512 95.8402 229.015 95.9088 228.692 96.1675C228.57 96.2649 228.6 96.5009 228.776 96.5167C229.167 96.5521 229.58 96.4462 229.972 96.4191C230.388 96.3903 230.803 96.3979 231.218 96.4368C232.04 96.5141 232.845 96.6955 233.653 96.8629C234.429 97.024 235.206 97.19 235.967 97.4145C236.357 97.5296 236.739 97.6628 237.119 97.806C237.294 97.872 237.469 97.9383 237.644 98.0048C237.841 98.0795 238.06 98.1281 238.248 98.2232C238.363 98.2814 238.478 98.1001 238.367 98.027Z" fill="#D87268"/>
<path d="M305.623 144.03C305.926 144.193 305.812 144.674 305.469 144.674C305.416 144.674 305.363 144.661 305.316 144.636C303.651 143.736 302.069 142.682 300.574 141.516C299.377 140.585 298.237 139.584 297.151 138.533C295.345 136.789 293.671 134.909 292.086 132.962C291.845 132.668 291.608 132.371 291.373 132.073C291.214 131.874 291.057 131.675 290.902 131.476C290.531 131.005 290.021 130.491 290.047 129.848C290.059 129.522 290.218 129.24 290.378 128.964C290.415 128.897 290.455 128.83 290.495 128.763C290.497 128.76 290.499 128.756 290.5 128.752C290.641 128.514 290.782 128.277 290.922 128.04C291.285 127.426 291.683 126.835 292.073 126.238C292.196 126.048 292.507 126.245 292.407 126.442C292.053 127.138 291.706 127.833 291.321 128.512C291.14 128.83 290.913 129.152 290.782 129.496C290.65 129.839 290.71 130.103 290.918 130.394C291.713 131.502 292.615 132.554 293.496 133.595C296.482 137.127 299.822 140.443 303.745 142.928C303.913 143.035 304.083 143.141 304.255 143.244C304.704 143.518 305.16 143.78 305.623 144.03Z" fill="#D8BFBC"/>
<path d="M327.502 127.17C327.788 127.192 328.088 127.23 328.368 127.166C328.5 127.136 328.531 126.98 328.409 126.91C328.144 126.759 327.815 126.716 327.512 126.687C327.22 126.659 326.926 126.646 326.632 126.637C326.612 126.636 326.593 126.636 326.573 126.635C325.612 126.607 324.637 126.426 323.768 126.017C323.579 125.928 323.389 125.841 323.197 125.758C321.266 124.923 319.225 124.357 317.169 123.926C316.251 123.734 315.582 122.931 315.563 121.993C315.537 120.702 315.48 119.409 315.492 118.117C315.509 116.209 315.6 114.302 315.762 112.401C316.085 108.617 316.686 104.856 317.564 101.161C317.81 100.123 318.078 99.0902 318.368 98.0637C318.66 97.0308 319.023 96.0031 319.218 94.9464C319.262 94.7094 318.925 94.6198 318.824 94.8282C318.404 95.6913 318.143 96.6339 317.878 97.5536C317.613 98.4693 317.366 99.3897 317.136 100.315C317.084 100.522 316.74 100.475 316.75 100.262C316.762 100.005 316.775 99.7489 316.791 99.493C316.89 97.8541 316.99 96.2153 317.109 94.5778C317.142 94.116 317.179 93.6545 317.211 93.1926C317.244 92.7336 317.309 92.2455 317.224 91.7904C317.194 91.6295 316.95 91.5524 316.882 91.7349C316.741 92.1125 316.709 92.5245 316.672 92.9232C316.634 93.3395 316.601 93.7562 316.57 94.1731C316.509 94.9921 316.453 95.8116 316.404 96.6316C316.306 98.2939 316.24 99.9576 316.194 101.622C316.168 102.56 316.135 103.497 316.208 104.433C316.211 104.469 316.219 104.506 316.212 104.541C316.123 105.011 316.038 105.481 315.958 105.953C315.315 109.739 314.961 113.57 314.89 117.409C314.87 118.49 314.873 119.571 314.899 120.652C314.934 122.088 313.649 123.299 312.227 123.093C309.48 122.697 306.727 122.338 304.029 121.672C301.602 121.073 299.2 120.194 297.054 118.897C296.845 118.771 296.625 119.128 296.83 119.266C298.693 120.524 300.734 121.374 302.89 121.994C305.065 122.62 307.298 123.004 309.534 123.337C313.76 123.967 318.066 124.425 322.081 125.977C323.167 126.397 324.224 126.895 325.224 127.493C325.708 127.782 326.181 128.097 326.637 128.428C327.119 128.778 327.614 129.117 328.084 129.481C328.232 129.597 328.462 129.397 328.33 129.245C327.985 128.847 327.641 128.474 327.236 128.136C326.836 127.804 326.409 127.501 325.97 127.222C325.904 127.18 325.932 127.079 326.011 127.081C326.213 127.085 326.416 127.093 326.618 127.103C326.913 127.117 327.207 127.148 327.502 127.17Z" fill="#D8BFBC"/>
<path d="M312.446 108.075C312.512 109.109 311.687 109.981 310.651 109.972L303.392 109.907C302.396 109.898 301.592 109.088 301.592 108.091C301.592 107.075 302.426 106.257 303.441 106.275L310.699 106.407C311.627 106.424 312.386 107.149 312.446 108.075ZM302.315 108.091C302.315 108.691 302.799 109.179 303.399 109.184L310.657 109.249C311.273 109.254 311.764 108.736 311.724 108.121C311.689 107.571 311.237 107.14 310.686 107.13L303.428 106.999C302.817 106.987 302.315 107.48 302.315 108.091Z" fill="#D8BFBC"/>
<path d="M303.918 30.0046C302.747 24.4116 299.683 21.9471 297.591 20.8914C297.09 20.6382 296.891 19.9958 297.172 19.5093C297.365 19.1768 297.544 18.8346 297.695 18.4811C297.846 18.1288 298.02 17.7126 297.986 17.323C297.97 17.1348 297.742 17.0919 297.625 17.2157C297.373 17.4833 297.233 17.8774 297.075 18.2054C296.914 18.5408 296.746 18.8723 296.559 19.1947C296.433 19.4127 296.09 19.3056 296.065 19.0549C296.057 18.967 296.046 18.8793 296.033 18.7919C295.906 17.9496 295.587 17.1848 295.121 16.4747C294.989 16.2736 294.628 16.4622 294.743 16.6818C295.352 17.8493 293.655 18.7933 292.428 18.314C288.911 16.9397 282.892 15.9645 276.586 18.9075C267.338 23.223 266.106 31.032 266.722 32.6759C266.937 33.248 267.408 33.5601 267.932 33.724C269.225 34.1284 270.638 34.388 271.598 35.3435C276.118 39.8417 289.438 52.7888 293.848 53.6368C299.191 54.6645 305.767 38.841 303.918 30.0046Z" fill="#5F2E32"/>
<path d="M273.725 32.7213C271.746 33.5588 270.131 35.4836 270.209 37.6313C270.377 42.2623 270.685 49.805 270.992 52.6324C271.448 56.8338 274.462 62.4051 281.86 62.4051C287.887 62.4051 293.307 58.8899 295.653 52.8469C296.544 50.5501 299.232 49.0937 301.207 47.6207C302.117 46.9417 302.837 45.7672 302.958 43.773C303.059 42.1128 302.647 41.1107 301.987 40.5589C299.831 38.7548 295.982 41.5436 294.601 39.0949C292.993 36.2427 287.869 30.8484 284.734 31.7936C283.478 32.172 282.219 32.3861 281.083 32.2898C278.998 32.1131 276.561 31.4316 274.661 32.307C274.356 32.4473 274.042 32.5868 273.725 32.7213Z" fill="#FFAEA2"/>
<path d="M281.869 26.5877C281.671 26.678 281.519 26.8742 281.377 27.0346C281.236 27.1942 281.1 27.3577 280.962 27.5208C280.671 27.8663 280.369 28.2026 280.038 28.5103C279.71 28.8153 279.363 29.098 278.999 29.3586C278.817 29.4885 278.636 29.6192 278.452 29.7468C278.261 29.8793 278.091 30.046 277.896 30.1694C277.704 30.291 277.88 30.6101 278.089 30.5205C278.303 30.4283 278.525 30.3729 278.733 30.2606C278.945 30.1467 279.152 30.0257 279.35 29.8892C279.744 29.6171 280.117 29.3119 280.468 28.986C280.815 28.6632 281.151 28.3222 281.449 27.9519C281.597 27.767 281.728 27.576 281.849 27.3723C281.964 27.1789 282.091 26.9549 282.091 26.7252C282.091 26.6212 281.96 26.5462 281.869 26.5877Z" fill="#3D1119"/>
<path d="M298.36 31.0026C298.331 30.5019 298.233 29.9996 298.075 29.524C297.758 28.5731 297.199 27.743 296.45 27.0804C296.158 26.8226 295.801 27.2844 296.075 27.5478C296.705 28.1515 297.169 28.941 297.432 29.7704C297.563 30.1819 297.644 30.6043 297.672 31.0351C297.699 31.4575 297.601 31.9409 297.793 32.3326C297.851 32.4503 297.978 32.464 298.069 32.3755C298.418 32.0364 298.387 31.4506 298.36 31.0026Z" fill="#3D1119"/>
<path d="M299.147 28.0808C299.056 27.7183 298.911 27.3712 298.73 27.045C298.364 26.3866 297.852 25.8966 297.223 25.4921C296.977 25.3337 296.687 25.6728 296.932 25.856C297.432 26.2288 297.857 26.784 298.139 27.3389C298.287 27.6303 298.406 27.9319 298.494 28.247C298.536 28.3979 298.567 28.5548 298.613 28.704C298.639 28.7877 298.688 28.8561 298.713 28.9403C298.738 29.0233 298.777 29.0941 298.812 29.1724C298.865 29.2886 299.056 29.3186 299.107 29.1802C299.166 29.0205 299.202 28.8594 299.228 28.6925C299.257 28.5041 299.192 28.2623 299.147 28.0808Z" fill="#3D1119"/>
<path d="M279.522 18.8594C279.274 18.8002 278.972 18.9315 278.743 19.0157C278.484 19.1105 278.242 19.2456 278.001 19.3784C277.779 19.501 277.561 19.631 277.347 19.768C277.236 19.8392 277.129 19.9104 277.028 19.9953C276.97 20.0439 276.917 20.0946 276.865 20.1484C276.814 20.2 276.779 20.2611 276.729 20.3132C276.573 20.4762 276.79 20.7738 276.993 20.6742C277.101 20.6214 277.215 20.5919 277.322 20.533C277.449 20.4639 277.57 20.3903 277.692 20.313C277.895 20.1844 278.102 20.0611 278.313 19.9467C278.541 19.8232 278.777 19.7137 279.003 19.5857C279.116 19.5218 279.227 19.4605 279.336 19.3911C279.447 19.3206 279.558 19.264 279.634 19.1506C279.711 19.0341 279.66 18.8924 279.522 18.8594Z" fill="#844C52"/>
<path d="M281.849 19.7298C281.732 19.6937 281.631 19.6635 281.509 19.681C281.391 19.6977 281.269 19.7225 281.153 19.7508C280.948 19.8008 280.745 19.8555 280.541 19.9088C280.127 20.017 279.719 20.1486 279.311 20.2748C279.042 20.3578 279.145 20.8169 279.426 20.7625C279.857 20.6788 280.29 20.5995 280.717 20.4969C280.922 20.4476 281.128 20.401 281.332 20.3477C281.436 20.3205 281.542 20.2875 281.644 20.2512C281.762 20.2088 281.838 20.1357 281.926 20.0472C282.013 19.9595 281.969 19.7668 281.849 19.7298Z" fill="#844C52"/>
<path d="M293.569 23.6761C293.095 23.8197 292.64 24.0083 292.155 24.1218C291.902 24.1812 291.642 24.2203 291.382 24.2404C291.26 24.2498 290.889 24.3229 290.792 24.2161C290.699 24.1149 290.873 23.868 290.934 23.7904C291.069 23.6188 291.23 23.477 291.408 23.3513C291.781 23.0882 292.207 22.9146 292.627 22.7424C292.929 22.6186 292.836 22.0937 292.49 22.16C291.758 22.3 291.018 22.3993 290.275 22.4519C290.103 22.4642 289.931 22.4738 289.76 22.4809C289.669 22.4847 289.548 22.4672 289.46 22.4904C289.459 22.4907 289.458 22.4908 289.457 22.4909C289.446 22.4913 289.439 22.478 289.445 22.4682C289.463 22.4371 289.48 22.4033 289.5 22.3828C289.547 22.3326 289.602 22.2873 289.654 22.2423C289.774 22.1378 289.898 22.0385 290.026 21.9437C291.049 21.1846 292.294 20.7549 293.567 20.7184C293.723 20.7139 293.735 20.4474 293.576 20.4413C292.025 20.3809 290.481 20.8669 289.271 21.8468C289.016 22.0534 288.712 22.3689 288.841 22.7311C288.987 23.1379 289.475 23.0738 289.817 23.0636C290.151 23.0539 290.485 23.0311 290.817 23.001C290.837 22.9992 290.847 23.0231 290.832 23.036C290.447 23.3676 289.978 23.9399 290.251 24.4779C290.535 25.0353 291.412 24.8663 291.907 24.7823C292.551 24.6729 293.253 24.4448 293.741 23.9906C293.888 23.8532 293.772 23.6143 293.569 23.6761Z" fill="#844C52"/>
<path d="M272.768 26.4507C272.674 26.3219 272.516 26.3198 272.389 26.3934C271.891 26.6816 271.414 26.9886 270.976 27.3636C270.751 27.556 270.536 27.7635 270.33 27.9762C270.23 28.0802 270.131 28.1863 270.036 28.2962C269.99 28.3504 269.94 28.4067 269.899 28.4671C269.79 28.6272 269.749 28.8785 269.9 28.9992C270.048 29.1176 270.278 29.0282 270.413 28.8951C270.462 28.846 270.508 28.7903 270.554 28.7382C270.644 28.6349 270.735 28.5316 270.828 28.4304C271.011 28.2333 271.203 28.0472 271.4 27.8652C271.807 27.4893 272.245 27.1292 272.711 26.8299C272.834 26.7509 272.851 26.5632 272.768 26.4507Z" fill="#844C52"/>
<path d="M283.353 23.8678C282.588 24.0741 281.927 24.5507 281.126 24.6554C280.914 24.6831 280.684 24.6882 280.455 24.6632C280.132 24.628 280.117 24.2382 280.389 24.0598C280.772 23.8081 281.283 23.4379 281.355 22.9497C281.375 22.8153 281.25 22.7316 281.129 22.7656C280.747 22.8736 280.433 23.2209 280.114 23.4454C279.765 23.6912 279.386 23.8855 278.984 24.0298C278.595 24.1699 278.189 24.2619 277.777 24.2998C277.361 24.338 276.997 24.3472 276.624 24.1465C276.464 24.0609 276.283 24.2503 276.347 24.4088C276.537 24.8738 277.117 24.9278 277.551 24.9347C278.058 24.9427 278.567 24.8531 279.05 24.701C279.178 24.6608 279.316 24.6908 279.419 24.7759C280.594 25.7439 282.539 25.1559 283.567 24.1604C283.717 24.0159 283.509 23.8258 283.353 23.8678Z" fill="#3D1119"/>
<path d="M301.154 44.0813C301.011 44.0421 300.867 44.0633 300.722 44.0716C300.578 44.0798 300.441 44.0999 300.3 44.1324C300.01 44.1996 299.719 44.3081 299.447 44.4284C299.392 44.4528 299.339 44.392 299.375 44.3428C299.739 43.8355 300.152 43.3543 300.572 42.9003C300.758 42.6982 300.461 42.4166 300.247 42.563C299.51 43.0691 298.934 43.7176 298.458 44.4737C298.225 44.8453 298.011 45.2304 297.835 45.6332C297.749 45.8311 297.668 46.0327 297.6 46.2376C297.562 46.3529 297.532 46.4671 297.508 46.585C297.483 46.7064 297.492 46.8052 297.492 46.9257C297.49 47.2234 297.879 47.2031 297.997 47.0076C297.956 47.075 298.051 46.9515 298.063 46.9333C298.089 46.892 298.101 46.8479 298.12 46.8031C298.16 46.709 298.2 46.6161 298.235 46.5199C298.307 46.3277 298.379 46.1367 298.461 45.9487C298.52 45.8136 298.582 45.6796 298.647 45.5471C298.703 45.433 298.792 45.3373 298.904 45.2778C299.152 45.1469 299.406 45.0316 299.667 44.9293C299.929 44.8265 300.195 44.7444 300.461 44.6541C300.593 44.609 300.721 44.5555 300.85 44.5046C300.977 44.4548 301.103 44.4187 301.216 44.3395C301.326 44.2619 301.267 44.1119 301.154 44.0813Z" fill="#D87268"/>
<path d="M282.128 47.3762C281.813 47.5191 281.536 47.7393 281.22 47.8869C280.924 48.0254 280.608 48.1343 280.279 48.1572C280.168 48.165 280.026 48.1659 279.929 48.102C279.813 48.0258 279.806 47.8803 279.801 47.7535C279.789 47.3679 279.844 46.9715 279.868 46.5866C279.976 44.871 280.082 43.1552 280.185 41.4393C280.214 40.9634 280.241 40.4868 280.256 40.0102C280.263 39.7725 280.274 39.5346 280.273 39.2969C280.271 39.0446 280.225 38.7955 280.227 38.5453C280.228 38.3175 279.856 38.309 279.829 38.5324C279.801 38.7684 279.726 38.9962 279.694 39.2337C279.663 39.47 279.641 39.7075 279.619 39.9447C279.575 40.4203 279.542 40.8972 279.511 41.3738C279.447 42.343 279.382 43.312 279.321 44.2815C279.261 45.2361 279.201 46.1909 279.142 47.1455C279.117 47.5396 279.048 47.9735 279.239 48.3381C279.419 48.6795 279.772 48.8349 280.145 48.8484C280.94 48.8769 282.065 48.4458 282.423 47.6865C282.505 47.5115 282.312 47.2924 282.128 47.3762Z" fill="#D87268"/>
<path d="M283.276 57.8346C283.208 57.7462 283.112 57.7137 283.011 57.6762C282.963 57.658 282.919 57.6375 282.868 57.6264C282.801 57.612 282.734 57.6179 282.666 57.6139C282.485 57.6026 282.277 57.6248 282.085 57.649C281.683 57.7 281.239 57.7795 280.897 58.0094C280.813 58.0665 280.782 58.1891 280.818 58.2822C280.857 58.3855 280.955 58.4303 281.059 58.4315C281.244 58.4339 281.43 58.4018 281.612 58.3709C281.796 58.3395 281.982 58.3164 282.168 58.2966C282.355 58.2768 282.542 58.2667 282.728 58.2506C282.905 58.2353 283.147 58.1787 283.272 58.0433C283.322 57.9891 283.32 57.891 283.276 57.8346Z" fill="#D87268"/>
<path d="M277.02 41.444C277.02 42.0746 276.652 42.5857 276.198 42.5857C275.744 42.5857 275.376 42.0746 275.376 41.444C275.376 40.8135 275.744 40.3024 276.198 40.3024C276.652 40.3024 277.02 40.8135 277.02 41.444Z" fill="black"/>
<path d="M288.528 41.444C288.528 42.0746 288.16 42.5857 287.706 42.5857C287.252 42.5857 286.884 42.0746 286.884 41.444C286.884 40.8135 287.251 40.3024 287.706 40.3024C288.16 40.3024 288.528 40.8135 288.528 41.444Z" fill="black"/>
<path d="M284.964 51.857C284.731 52.0056 284.505 52.1445 284.282 52.3105C284.075 52.465 283.856 52.6109 283.63 52.7362C283.17 52.9911 282.658 53.1679 282.139 53.2479C281.587 53.3328 281.029 53.3191 280.482 53.2059C279.913 53.0882 279.397 52.8229 278.839 52.6744C278.667 52.6286 278.525 52.8699 278.639 53.0026C279.051 53.4828 279.699 53.7174 280.298 53.8561C280.929 54.0023 281.601 54.0322 282.241 53.9278C282.845 53.8294 283.42 53.6271 283.955 53.3318C284.221 53.1852 284.472 53.0196 284.702 52.8194C284.942 52.61 285.109 52.3711 285.251 52.0879C285.342 51.9065 285.114 51.7613 284.964 51.857Z" fill="#D87268"/>
<path d="M277.862 36.0746C277.911 36.7538 277.309 36.6187 276.076 36.7083C274.844 36.7981 273.448 37.0788 273.398 36.3996C273.349 35.7204 274.809 35.0606 276.042 34.9708C277.274 34.8811 277.812 35.3955 277.862 36.0746Z" fill="#5F2E32"/>
<path d="M285.452 36.1199C285.401 36.824 286.055 36.6859 287.394 36.7835C288.733 36.8811 290.251 37.1773 290.303 36.4731C290.354 35.769 288.765 35.0794 287.426 34.9818C286.087 34.8842 285.504 35.4157 285.452 36.1199Z" fill="#5F2E32"/>
</svg>
