<svg width="29" height="28" viewBox="0 0 29 28" fill="none" xmlns="http://www.w3.org/2000/svg">
<path d="M14.5 0C11.7795 0.00516438 9.11922 0.800663 6.84318 2.2896C4.56714 3.77854 2.77358 5.89665 1.68097 8.38594C0.588357 10.8752 0.243848 13.6283 0.689405 16.3097C1.13496 18.9912 2.35135 21.4853 4.19042 23.4883C5.50391 24.9108 7.09806 26.0461 8.87242 26.8226C10.6468 27.5991 12.5629 28 14.5 28C16.4371 28 18.3532 27.5991 20.1276 26.8226C21.9019 26.0461 23.4961 24.9108 24.8096 23.4883C26.6486 21.4853 27.865 18.9912 28.3106 16.3097C28.7562 13.6283 28.4116 10.8752 27.319 8.38594C26.2264 5.89665 24.4329 3.77854 22.1568 2.2896C19.8808 0.800663 17.2205 0.00516438 14.5 0ZM14.5 25.2261C11.5943 25.2217 8.80366 24.0913 6.71521 22.0728C7.34928 20.5306 8.42791 19.2115 9.81405 18.2831C11.2002 17.3548 12.8313 16.8591 14.5 16.8591C16.1687 16.8591 17.7998 17.3548 19.1859 18.2831C20.5721 19.2115 21.6507 20.5306 22.2848 22.0728C20.1963 24.0913 17.4057 25.2217 14.5 25.2261ZM11.6947 11.2116C11.6947 10.6572 11.8592 10.1153 12.1675 9.65438C12.4757 9.19345 12.9138 8.83419 13.4264 8.62205C13.9391 8.4099 14.5031 8.3544 15.0473 8.46255C15.5915 8.5707 16.0913 8.83765 16.4837 9.22964C16.876 9.62163 17.1432 10.1211 17.2514 10.6648C17.3597 11.2085 17.3041 11.772 17.0918 12.2842C16.8795 12.7964 16.5199 13.2341 16.0586 13.5421C15.5972 13.8501 15.0548 14.0145 14.5 14.0145C13.756 14.0145 13.0424 13.7192 12.5163 13.1935C11.9902 12.6679 11.6947 11.955 11.6947 11.2116ZM24.1924 19.6203C22.9392 17.4785 21.0103 15.8126 18.708 14.8834C19.4222 14.0743 19.8875 13.0764 20.0482 12.0096C20.2089 10.9428 20.058 9.85234 19.6138 8.86906C19.1695 7.88578 18.4507 7.05147 17.5437 6.46624C16.6366 5.881 15.5798 5.56971 14.5 5.56971C13.4202 5.56971 12.3634 5.881 11.4563 6.46624C10.5493 7.05147 9.83049 7.88578 9.38624 8.86906C8.94198 9.85234 8.79114 10.9428 8.9518 12.0096C9.11247 13.0764 9.57782 14.0743 10.292 14.8834C7.98967 15.8126 6.06083 17.4785 4.80759 19.6203C3.80881 17.9205 3.2811 15.9856 3.27869 14.0145C3.27869 11.041 4.46093 8.18928 6.56533 6.0867C8.66974 3.98411 11.5239 2.8029 14.5 2.8029C17.4761 2.8029 20.3303 3.98411 22.4347 6.0867C24.5391 8.18928 25.7213 11.041 25.7213 14.0145C25.7189 15.9856 25.1912 17.9205 24.1924 19.6203Z" fill="#4B4B4B"/>
</svg>
