<svg width="22" height="22" viewBox="0 0 22 22" fill="none" xmlns="http://www.w3.org/2000/svg">
<path d="M19.1667 12.1667V18C19.1667 18.6417 18.6417 19.1667 18 19.1667H4C3.35833 19.1667 2.83333 18.6417 2.83333 18V12.1667C2.83333 11.525 2.30833 11 1.66667 11C1.025 11 0.5 11.525 0.5 12.1667V19.1667C0.5 20.45 1.55 21.5 2.83333 21.5H19.1667C20.45 21.5 21.5 20.45 21.5 19.1667V12.1667C21.5 11.525 20.975 11 20.3333 11C19.6917 11 19.1667 11.525 19.1667 12.1667ZM12.1667 11.7817L14.36 9.58833C14.815 9.13333 15.55 9.13333 16.005 9.58833C16.46 10.0433 16.46 10.7783 16.005 11.2333L11.8167 15.4217C11.3617 15.8767 10.6267 15.8767 10.1717 15.4217L5.98333 11.2333C5.52833 10.7783 5.52833 10.0433 5.98333 9.58833C6.43833 9.13333 7.17333 9.13333 7.62833 9.58833L9.83333 11.7817V1.66667C9.83333 1.025 10.3583 0.5 11 0.5C11.6417 0.5 12.1667 1.025 12.1667 1.66667V11.7817Z" fill="#4B4B4B"/>
</svg>
