<svg width="24" height="26" viewBox="0 0 24 26" fill="none" xmlns="http://www.w3.org/2000/svg">
<path d="M11.9999 8.34375C9.69471 8.34375 7.82599 10.2125 7.82599 12.5177C7.82599 14.8228 9.69471 16.6916 11.9999 16.6916C14.3051 16.6916 16.1738 14.8228 16.1738 12.5177C16.1738 10.2125 14.3051 8.34375 11.9999 8.34375ZM9.91294 12.5177C9.91294 11.3651 10.8473 10.4307 11.9999 10.4307C13.1525 10.4307 14.0868 11.3651 14.0868 12.5177C14.0868 13.6702 13.1525 14.6046 11.9999 14.6046C10.8473 14.6046 9.91294 13.6702 9.91294 12.5177Z" fill="#4B4B4B"/>
<path d="M17.4636 5.00113C16.6601 5.14705 15.8899 4.61671 15.7433 3.8166L15.2013 0.861932C15.1474 0.568318 14.9209 0.336124 14.6277 0.274017C13.7701 0.0923684 12.8908 0 12 0C11.1086 0 10.2288 0.0924936 9.37069 0.274351C9.07741 0.336521 8.85085 0.568841 8.79711 0.862579L8.25659 3.81672C8.24221 3.89527 8.22138 3.97264 8.19436 4.04796C7.91948 4.81385 7.0731 5.21285 6.30389 4.93915L3.46674 3.92906C3.18475 3.82866 2.86979 3.90752 2.66903 4.12878C1.48184 5.43722 0.582095 6.98112 0.0358982 8.66308C-0.0562408 8.94685 0.0326008 9.25793 0.260913 9.45093L2.56057 11.395C2.62176 11.4467 2.67865 11.5034 2.73063 11.5643C3.25934 12.1843 3.18319 13.1136 2.56055 13.6401L0.260913 15.5841C0.0326008 15.7771 -0.0562408 16.0882 0.0358982 16.3719C0.582095 18.0539 1.48184 19.5978 2.66903 20.9064C2.86979 21.1276 3.18475 21.2065 3.46674 21.1061L6.30402 20.0958C6.37954 20.0691 6.45724 20.0482 6.53625 20.0338C7.33983 19.8879 8.11006 20.4182 8.25661 21.2183L8.79711 24.1724C8.85085 24.4663 9.07741 24.6986 9.37069 24.7607C10.2288 24.9425 11.1086 25.035 12 25.035C12.8908 25.035 13.7701 24.9427 14.6277 24.761C14.9209 24.699 15.1474 24.4667 15.2013 24.1731L15.7433 21.2186C15.7577 21.1397 15.7786 21.0625 15.8056 20.9871C16.0805 20.2212 16.9268 19.8222 17.6961 20.0958L20.5331 21.1061C20.8153 21.2065 21.1302 21.1276 21.3309 20.9064C22.5182 19.5978 23.4179 18.0539 23.9641 16.3719C24.0563 16.0882 23.9674 15.7771 23.7391 15.5841L21.4395 13.64C21.3781 13.5883 21.3213 13.5317 21.2694 13.4707C20.7405 12.8507 20.8167 11.9214 21.4395 11.395L23.7391 9.45093C23.9674 9.25793 24.0563 8.94685 23.9641 8.66308C23.4179 6.98112 22.5182 5.43722 21.3309 4.12878C21.1302 3.90752 20.8153 3.82866 20.5331 3.92906L17.6959 4.93919C17.6203 4.96605 17.5427 4.98679 17.4636 5.00113ZM3.64931 6.20933L5.60393 6.9052C7.45077 7.56236 9.49296 6.60771 10.1586 4.75293C10.224 4.57067 10.2746 4.38291 10.3095 4.19233L10.6797 2.16872C11.1145 2.11444 11.5551 2.08695 12 2.08695C12.4445 2.08695 12.8848 2.1144 13.3192 2.16859L13.6906 4.19314C14.0463 6.13324 15.9081 7.40467 17.8366 7.05452C18.0265 7.02003 18.2139 6.97002 18.3959 6.90526L20.3507 6.20933C20.8829 6.90549 21.3253 7.66498 21.6665 8.47029L20.0919 9.80126C18.5876 11.0732 18.4017 13.3242 19.6814 14.8249C19.8068 14.9721 19.9444 15.1089 20.0921 15.2338L21.6665 16.5647C21.3253 17.37 20.8829 18.1295 20.3507 18.8257L18.3956 18.1297C16.5489 17.4725 14.507 18.4273 13.8413 20.2821C13.7759 20.4643 13.7254 20.6522 13.6905 20.8427L13.3192 22.8664C12.8848 22.9207 12.4445 22.948 12 22.948C11.5551 22.948 11.1145 22.9207 10.6797 22.8662L10.3094 20.8425C9.95403 18.902 8.09201 17.6303 6.1634 17.9804C5.97342 18.0151 5.78608 18.065 5.60405 18.1299L3.64931 18.8257C3.11701 18.1295 2.67466 17.37 2.33351 16.5647L3.90797 15.2338C5.41237 13.9618 5.59833 11.7108 4.31859 10.2102C4.19304 10.0629 4.05562 9.92611 3.9079 9.80122L2.33351 8.47029C2.67466 7.66498 3.11701 6.90549 3.64931 6.20933Z" fill="#4B4B4B"/>
</svg>
