<svg width="32" height="26" viewBox="0 0 32 26" fill="none" xmlns="http://www.w3.org/2000/svg">
<path d="M31.4283 5.86169L27.5902 17.9806C27.3033 18.8437 26.55 19.4191 25.6533 19.4191H10.8391C9.97826 19.4191 9.15326 18.8797 8.8663 18.0885L3.19891 2.8769H-0.0652174C-0.854348 2.8769 -1.5 2.2296 -1.5 1.43845C-1.5 0.647303 -0.854348 0 -0.0652174 0H4.20326C4.81304 0 5.35109 0.395574 5.5663 0.970954L11.413 16.5422H25.0435L28.0924 6.83264H11.1978C10.4087 6.83264 9.76304 6.18534 9.76304 5.39419C9.76304 4.60304 10.4087 3.95574 11.1978 3.95574H30.0652C30.5315 3.95574 30.962 4.20747 31.213 4.56708C31.5 4.92669 31.5717 5.43015 31.4283 5.86169ZM11.5565 21.325C10.9467 21.325 10.337 21.5768 9.90652 22.0083C9.47609 22.4398 9.225 23.0512 9.225 23.6625C9.225 24.2739 9.47609 24.8852 9.90652 25.3167C10.337 25.7483 10.9467 26 11.5565 26C12.1663 26 12.7761 25.7483 13.2065 25.3167C13.637 24.8852 13.888 24.2739 13.888 23.6625C13.888 23.0512 13.637 22.4398 13.2065 22.0083C12.7761 21.5768 12.1663 21.325 11.5565 21.325ZM24.4337 21.325C23.8239 21.325 23.2141 21.5768 22.7837 22.0083C22.3533 22.4398 22.1022 23.0512 22.1022 23.6625C22.1022 24.2739 22.3533 24.8852 22.7837 25.3167C23.2141 25.7483 23.8239 26 24.4337 26C25.0435 26 25.6533 25.7483 26.0837 25.3167C26.5141 24.8852 26.7652 24.2739 26.7652 23.6625C26.7652 23.0512 26.5141 22.4398 26.0837 22.0083C25.6533 21.5768 25.0435 21.325 24.4337 21.325Z" fill="#4B4B4B"/>
</svg>
